<?xml version="1.0" standalone="no"?>
<!DOCTYPE svg PUBLIC "-//W3C//DTD SVG 1.1//EN" "http://www.w3.org/Graphics/SVG/1.1/DTD/svg11.dtd" >
<svg>
<metadata>
Created by FontForge 20090914 at Wed Nov 19 10:14:41 2014
 By www-data
Copyright &#194;&#169; 2009 ParaType Ltd. All rights reserved.
</metadata>
<defs>
<font id="PTSans-Regular" horiz-adv-x="1116" >
  <font-face 
    font-family="PT Sans"
    font-weight="400"
    font-stretch="normal"
    units-per-em="2048"
    panose-1="2 11 5 3 2 2 3 2 2 4"
    ascent="1577"
    descent="-471"
    x-height="1024"
    cap-height="1434"
    bbox="-76 -471 2001 1782"
    underline-thickness="102"
    underline-position="-102"
    unicode-range="U+000D-U+FB02"
  />
<missing-glyph horiz-adv-x="748" 
d="M68 0v1365h544v-1365h-544zM136 68h408v1229h-408v-1229z" />
    <glyph glyph-name="uniFB01" unicode="fi" horiz-adv-x="1105" 
d="M45 881l0.00195312 142.999h160v57c0 128.667 31.667 222 95 280s156.666 87 279.999 87c80.667 0 152.334 -7.83301 215.001 -23.5s111.667 -34.5 147 -56.5l-55 -131c-36.667 23.333 -80.334 40.5 -131.001 51.5s-104.667 16.5 -162 16.5
c-50.667 0 -90.667 -5.83301 -120 -17.5s-51.833 -29.5 -67.5 -53.5s-25.834 -53.667 -30.501 -89s-7 -75.666 -7 -120.999h577v-1024h-164v881h-413v-881h-164v881h-160z" />
    <glyph glyph-name="uniFB02" unicode="fl" horiz-adv-x="1193" 
d="M45 881l0.00195312 143.001h160v57c0 128.667 27.667 223.667 83 285s147.666 92 276.999 92c27.333 0 58.166 -1 92.499 -3s68.833 -4.66699 103.5 -8s67.334 -7 98.001 -11s55.667 -9 75 -15v-1169c0 -48 8.5 -82.167 25.5 -102.5s39.833 -30.5 68.5 -30.5
c19.333 0 39.166 1.33301 59.499 4s43.5 8.66699 69.5 18l17 -129c-10.667 -5.33301 -24 -10.333 -40 -15s-32.833 -8.33398 -50.5 -11.001s-35.334 -5.16699 -53.001 -7.5s-33.5 -3.5 -47.5 -3.5c-61.333 0 -112.166 17.5 -152.499 52.5s-60.5 94.167 -60.5 177.5v1093
c-20.667 4 -50 7.83301 -88 11.5s-75.667 5.5 -113 5.5c-46.667 0 -83.167 -6.5 -109.5 -19.5s-46.333 -32.167 -60 -57.5s-22.167 -56 -25.5 -92s-5 -76.667 -5 -122h211v-143h-211v-881h-164v881h-160z" />
    <glyph glyph-name=".notdef" horiz-adv-x="748" 
d="M68 0v1365h544v-1365h-544zM136 68h408v1229h-408v-1229z" />
    <glyph glyph-name="uni000D" unicode="&#xd;" horiz-adv-x="546" 
 />
    <glyph glyph-name="space" unicode=" " horiz-adv-x="546" 
 />
    <glyph glyph-name="exclam" unicode="!" horiz-adv-x="624" 
d="M225 94c0 36.667 10.667 65.667 32 87s49.666 32 84.999 32c36.667 0 66 -10.5 88 -31.5s33 -50.167 33 -87.5c0 -35.333 -11 -64 -33 -86s-51.333 -33 -88 -33c-35.333 0 -63.666 11 -84.999 33s-32 50.667 -32 86zM260 723v711h170v-711l-35 -361h-100z" />
    <glyph glyph-name="quotedbl" unicode="&#x22;" horiz-adv-x="686" 
d="M184 1038v396h160l-63 -396h-97zM424 1038v396h160l-63 -396h-97z" />
    <glyph glyph-name="numbersign" unicode="#" 
d="M57 461l29 131h162l63 268h-151l28 131h154l78 324h141l-78 -324h215l78 324h142l-78 -324h157l-32 -131h-156l-64 -268h150l-33 -131h-147l-80 -342h-141l79 342h-215l-79 -342h-142l80 342h-160zM389 592h215l64 268h-215z" />
    <glyph glyph-name="dollar" unicode="$" 
d="M156 41l55 149c27.333 -16.667 64.5 -31.667 111.5 -45s104.833 -20.666 173.5 -21.999v553c-40.667 20.667 -81.334 42.5 -122.001 65.5s-76.667 50.5 -108 82.5s-56.5 70 -75.5 114s-28.5 96 -28.5 156c0 98 27.667 178.5 83 241.5s139 101.833 251 116.5v186h139v-180
c69.333 -2.66699 126.166 -9.16699 170.499 -19.5s84.5 -23.5 120.5 -39.5l-49 -144c-27.333 13.333 -60.166 25.333 -98.499 36s-86.166 17.334 -143.499 20.001v-506c42 -22 84.167 -45.667 126.5 -71s80.333 -54.333 114 -87s60.667 -70.834 81 -114.501
s30.5 -94.834 30.5 -153.501c0 -106.667 -29.667 -194.5 -89 -263.5s-147 -112.833 -263 -131.5v-189h-139v180c-75.333 1.33301 -142 7.83301 -200 19.5s-104.667 27.167 -140 46.5zM332 1104c0 -58.667 18.667 -106.5 56 -143.5s84 -70.5 140 -100.5v449
c-72.667 -8 -123.5 -31.833 -152.5 -71.5s-43.5 -84.167 -43.5 -133.5zM602 127c62.667 9.33301 114.167 33.6689 154.5 73.002s60.5 94.333 60.5 165c0 32.667 -5.83301 62 -17.5 88s-27 49.167 -46 69.5s-41.5 38.666 -67.5 54.999s-54 32.166 -84 47.499v-498z" />
    <glyph glyph-name="percent" unicode="%" horiz-adv-x="1583" 
d="M143 1110c0 61.333 8.16699 113.83 24.5 157.497s38.5 79.834 66.5 108.501s61.5 49.5 100.5 62.5s81.167 19.5 126.5 19.5s87.333 -6.16699 126 -18.5s72 -32.166 100 -59.499s50.167 -63.166 66.5 -107.499s24.5 -98.5 24.5 -162.5s-8.16699 -118.167 -24.5 -162.5
s-38.5 -80.166 -66.5 -107.499s-61.5 -47.166 -100.5 -59.499s-80.833 -18.5 -125.5 -18.5c-45.333 0 -87.5 6.16699 -126.5 18.5s-72.5 32.166 -100.5 59.499s-50.167 63.166 -66.5 107.499s-24.5 98.5 -24.5 162.5zM252 54.9971l1053 1405l100 -78l-1051 -1407zM295 1110
c0 -82 14.668 -140.665 44.001 -175.998s70 -53 122 -53c26 0 49.167 3.66699 69.5 11s37.666 19.5 51.999 36.5s25.166 40.167 32.499 69.5s11 66.666 11 111.999s-3.66699 82.666 -11 111.999s-18.166 52.5 -32.499 69.5s-31.833 29.167 -52.5 36.5s-43.667 11 -69 11
c-52 0 -92.667 -16 -122 -48s-44 -92.333 -44 -181zM874.001 349.999c0 61.333 8.16699 113.83 24.5 157.497s38.5 79.834 66.5 108.501s61.5 49.5 100.5 62.5s81.167 19.5 126.5 19.5s87.333 -6.16699 126 -18.5s72 -32.166 100 -59.499s50.167 -63.166 66.5 -107.499
s24.5 -98.5 24.5 -162.5s-8.16699 -118.167 -24.5 -162.5s-38.5 -80.166 -66.5 -107.499s-61.5 -47.166 -100.5 -59.499s-80.833 -18.5 -125.5 -18.5c-45.333 0 -87.5 6.16699 -126.5 18.5s-72.5 32.166 -100.5 59.499s-50.167 63.166 -66.5 107.499s-24.5 98.5 -24.5 162.5
zM1026 349.996c0 -82 14.668 -140.665 44.001 -175.998s70 -53 122 -53c26 0 49.167 3.66699 69.5 11s37.666 19.5 51.999 36.5s25.166 40.167 32.499 69.5s11 66.666 11 111.999s-3.66699 82.666 -11 111.999s-18.166 52.5 -32.499 69.5s-31.833 29.167 -52.5 36.5
s-43.667 11 -69 11c-52 0 -92.667 -16 -122 -48s-44 -92.333 -44 -181z" />
    <glyph glyph-name="ampersand" unicode="&#x26;" horiz-adv-x="1667" 
d="M242 383c0 54.667 9.49707 106.835 28.4971 156.502s44.833 95.667 77.5 138s69.834 81.333 111.501 117s85.167 67.167 130.5 94.5c-32.667 49.333 -61 98.5 -85 147.5s-36 102.167 -36 159.5c0 32.667 5.5 64.667 16.5 96s28.333 59.333 52 84s54.334 44.5 92.001 59.5
s83.167 22.5 136.5 22.5c56 0 103.167 -7.16699 141.5 -21.5s69 -33 92 -56s39.667 -48.833 50 -77.5s15.5 -58.334 15.5 -89.001c0 -57.333 -22.167 -116.333 -66.5 -177s-114.5 -119 -210.5 -175c22 -39.333 47.667 -79.833 77 -121.5s60.5 -83 93.5 -124l100.5 -122
c34 -40.333 68 -77.5 102 -111.5c15.333 16.667 30.5 37.5 45.5 62.5s29.667 51.5 44 79.5s27.333 57 39 87s22.167 58.667 31.5 86l127 -59c-8 -23.333 -19.5 -51 -34.5 -83s-31.833 -64.667 -50.5 -98l-56.5 -96.5c-19 -31 -36.833 -56.5 -53.5 -76.5
c28.667 -27.333 54.667 -51 78 -71s44.833 -37.167 64.5 -51.5s38.834 -27.333 57.501 -39l56 -33.5l-102 -115c-72.667 35.333 -155.334 99 -248.001 191c-24.667 -24.667 -51.667 -48.334 -81 -71.001s-62.333 -42.834 -99 -60.501s-77.167 -32 -121.5 -43
s-93.166 -16.5 -146.499 -16.5c-64 0 -124.5 9 -181.5 27s-106.667 44.333 -149 79s-76 77.334 -101 128.001s-37.5 108.667 -37.5 174zM405.997 387.001c0 -42 8.83008 -79.835 26.4971 -113.502s41.834 -61.667 72.501 -84s65.834 -39.666 105.501 -51.999
s81.167 -18.5 124.5 -18.5c34 0 67.167 4.33301 99.5 13s62.833 19.834 91.5 33.501s54.834 29.334 78.501 47.001s43.167 36.167 58.5 55.5c-39.333 39.333 -78.166 82.333 -116.499 129l-110 139.5c-35 46.333 -67.167 91 -96.5 134s-54 80.833 -74 113.5
c-36.667 -27.333 -70.834 -55.333 -102.501 -84s-59.5 -59 -83.5 -91s-42.333 -66.333 -55 -103s-19 -76.334 -19 -119.001zM628.994 1196c0 -40.667 8.49902 -81.167 25.499 -121.5s39.167 -80.5 66.5 -120.5c72.667 46.667 122.834 89.167 150.501 127.5
s41.5 71.833 41.5 100.5c0 44 -10.5 79.5 -31.5 106.5s-57.5 40.5 -109.5 40.5c-49.333 0 -85.5 -12.333 -108.5 -37s-34.5 -56.667 -34.5 -96z" />
    <glyph glyph-name="quotesingle" unicode="'" horiz-adv-x="446" 
d="M184 1038v396h160l-63 -396h-97z" />
    <glyph glyph-name="parenleft" unicode="(" horiz-adv-x="573" 
d="M123 498c0 75.333 6.1709 154.498 18.5039 237.498s32.166 166.5 59.499 250.5s63.166 166.333 107.499 247s98.5 155.667 162.5 225l98 -72c-54.667 -69.333 -100 -141.166 -136 -215.499s-65 -149.833 -87 -226.5s-37.333 -152.834 -46 -228.501
s-13 -148.167 -13 -217.5c0 -65.333 5 -136.666 15 -213.999s26.333 -154.5 49 -231.5s52.167 -152.5 88.5 -226.5s79.5 -141 129.5 -201l-104 -76c-62.667 65.333 -115.834 137.333 -159.501 216s-78.834 159.334 -105.501 242.001s-46.167 166 -58.5 250
s-18.5 164.333 -18.5 241z" />
    <glyph glyph-name="parenright" unicode=")" horiz-adv-x="573" 
d="M4 -379c54.667 69.333 100.496 141.668 137.496 217.001s66 151.166 87 227.499s36 152.166 45 227.499s13.5 147.666 13.5 216.999c0 65.333 -5.5 136.333 -16.5 213s-27.833 153.834 -50.5 231.501s-51.667 153.334 -87 227.001s-78.333 140.5 -129 200.5l105 76
c62.667 -65.333 115.834 -137.333 159.501 -216s78.834 -159.167 105.501 -241.5s46.167 -165.5 58.5 -249.5s18.5 -164.333 18.5 -241c0 -75.333 -6.16699 -154.666 -18.5 -237.999s-32.166 -166.833 -59.499 -250.5s-63.166 -165.834 -107.499 -246.501
s-98.833 -156 -163.5 -226z" />
    <glyph glyph-name="asterisk" unicode="*" horiz-adv-x="718" 
d="M82 1133v114h102l127 -24l-92 90l-53 94l100 57l51 -86l37 -114l43 116l49 82l99 -53l-53 -88l-95 -98l140 24h98v-114h-94l-131 24l94 -98l47 -80l-96 -57l-54 86l-47 125l-39 -119l-51 -86l-102 57l55 86l86 86l-119 -24h-102z" />
    <glyph glyph-name="plus" unicode="+" horiz-adv-x="1034" 
d="M82 618v148h360v371h148v-371h360v-148h-360v-368h-148v368h-360z" />
    <glyph glyph-name="comma" unicode="," horiz-adv-x="460" 
d="M86 -225c49.333 19.333 85.834 49 109.501 89s35.5 80.667 35.5 122c-12 -4 -23.333 -6 -34 -6c-27.333 0 -50.333 9.16699 -69 27.5s-28 45.166 -28 80.499c0 32.667 11 59.334 33 80.001s50 31 84 31c42 0 76.333 -15 103 -45s40 -73.667 40 -131
c0 -49.333 -6.83301 -92.5 -20.5 -129.5s-31.334 -68.833 -53.001 -95.5s-45.5 -48.5 -71.5 -65.5s-52 -29.5 -78 -37.5z" />
    <glyph glyph-name="hyphen" unicode="-" horiz-adv-x="737" 
d="M121 514v152h495v-152h-495z" />
    <glyph glyph-name="period" unicode="." horiz-adv-x="438" 
d="M100 94c0 36.667 10.667 65.667 32 87s49.666 32 84.999 32c36.667 0 66 -10.5 88 -31.5s33 -50.167 33 -87.5c0 -35.333 -11 -64 -33 -86s-51.333 -33 -88 -33c-35.333 0 -63.666 11 -84.999 33s-32 50.667 -32 86z" />
    <glyph glyph-name="slash" unicode="/" horiz-adv-x="724" 
d="M-76 -229l748 1687l129 -57l-748 -1688z" />
    <glyph glyph-name="zero" unicode="0" 
d="M88 717c0 246 40.001 431 120.001 555s196.333 186 349 186c165.333 0 285.166 -61 359.499 -183s111.5 -308 111.5 -558c0 -246 -40 -431.167 -120 -555.5s-197 -186.5 -351 -186.5c-162.667 0 -281.5 65 -356.5 195s-112.5 312.333 -112.5 547zM258.001 717
c0 -88.667 5.83203 -169.5 17.499 -242.5s29.834 -135.833 54.501 -188.5s55.667 -93.667 93 -123s82 -44 134 -44c104 0 180.167 48.167 228.5 144.5s72.5 247.5 72.5 453.5c0 87.333 -5.16699 167.833 -15.5 241.5s-27.333 137.167 -51 190.5s-54.667 94.333 -93 123
s-85.5 43 -141.5 43c-102.667 0 -178.167 -48.5 -226.5 -145.5s-72.5 -247.833 -72.5 -452.5z" />
    <glyph glyph-name="one" unicode="1" 
d="M143 1110l451 348h74v-1306h280v-152h-727v152h287v991l20 121l-82 -97l-225 -161z" />
    <glyph glyph-name="two" unicode="2" 
d="M127 0l0.00195312 58.998l108.5 117c42.333 46.667 86.333 98.334 132 155.001s90.667 116.667 135 180s84.666 127.833 120.999 193.5s65.333 130.5 87 194.5s32.5 124.667 32.5 182c0 66.667 -19 122.334 -57 167.001s-96 67 -174 67c-52 0 -102.5 -10.667 -151.5 -32
s-91.5 -45.666 -127.5 -72.999l-67 117c48 40.667 104.667 72.667 170 96s135.666 35 210.999 35c58.667 0 110.5 -8.5 155.5 -25.5s83.167 -41.167 114.5 -72.5s55.166 -68.5 71.499 -111.5s24.5 -89.833 24.5 -140.5c0 -72.667 -13.167 -146.834 -39.5 -222.501
s-61 -151.667 -104 -228s-91.167 -151 -144.5 -224s-106.666 -142.5 -159.999 -208.5l-100 -88v-8l131 23h446v-152h-815z" />
    <glyph glyph-name="three" unicode="3" 
d="M180 27l42.9971 145.001c31.333 -15.333 68.5 -28 111.5 -38s91.167 -15 144.5 -15c46.667 0 89.834 6.83301 129.501 20.5s73.834 33.834 102.501 60.501s51.167 58.334 67.5 95.001s24.5 77 24.5 121c0 95.333 -28.333 166.166 -85 212.499s-135 69.5 -235 69.5h-151
v60l295 454l94 91l-133 -21h-406v152h731v-60l-325 -489l-72 -60v-4l70 15c54.667 -1.33301 105.167 -11.333 151.5 -30s86.5 -45.334 120.5 -80.001s60.667 -76.334 80 -125.001s29 -103.667 29 -165c0 -74 -13 -139.5 -39 -196.5s-61.167 -105 -105.5 -144
s-96.666 -68.833 -156.999 -89.5s-123.833 -31 -190.5 -31c-61.333 0 -116.5 4.83301 -165.5 14.5s-92.167 22.167 -129.5 37.5z" />
    <glyph glyph-name="four" unicode="4" 
d="M41 440v68l680 948h110v-872h242v-144h-242v-440h-159v440h-631zM227 567l144 17h301v446l20 168h-6l-72 -139l-288 -391z" />
    <glyph glyph-name="five" unicode="5" 
d="M158 16l43 140.001c31.333 -12 65 -21.167 101 -27.5s80.667 -9.5 134 -9.5c94 0 171.833 27.333 233.5 82s92.5 133.667 92.5 237c0 100 -30.333 174.5 -91 223.5s-144.334 73.5 -251.001 73.5l-172 -10v709h639v-152h-486v-408l88 5c135.333 -1.33301 242 -39 320 -113
s117 -179.667 117 -317c0 -76.667 -13 -144.667 -39 -204s-61.167 -108.833 -105.5 -148.5s-96.5 -69.834 -156.5 -90.501s-124.333 -31 -193 -31c-61.333 0 -113.166 3.5 -155.499 10.5s-81.833 17.167 -118.5 30.5z" />
    <glyph glyph-name="six" unicode="6" 
d="M123 481c0 135.333 17.335 259.998 52.002 373.998s82.834 213.333 144.501 298s134.5 153.334 218.5 206.001s175 85.667 273 99l35 -131c-76.667 -13.333 -146.334 -39.166 -209.001 -77.499s-117.667 -85.5 -165 -141.5s-86 -118.833 -116 -188.5
s-50.333 -141.167 -61 -214.5c22 36.667 58.833 70.334 110.5 101.001s115.167 46 190.5 46c128.667 0 229.5 -36.833 302.5 -110.5s109.5 -176.834 109.5 -309.501c0 -62.667 -9.66699 -121.667 -29 -177s-47.333 -103.833 -84 -145.5s-82.334 -74.5 -137.001 -98.5
s-117 -36 -187 -36c-68 0 -129.333 11 -184 33s-101.834 54.5 -141.501 97.5s-70 95.833 -91 158.5s-31.5 135 -31.5 217zM283.002 460.998c0 -42 5.6709 -83.668 17.0039 -125.001s29.333 -78 54 -110s55.167 -57.833 91.5 -77.5s78.833 -29.5 127.5 -29.5
c39.333 0 75.166 7.5 107.499 22.5s60.166 35.5 83.499 61.5s41.5 57.5 54.5 94.5s19.5 76.5 19.5 118.5c0 96.667 -22.667 169.667 -68 219s-115 74 -209 74c-66.667 0 -124.334 -16.5 -173.001 -49.5s-82.334 -69.833 -101.001 -110.5
c-2.66699 -19.333 -4 -35.166 -4 -47.499v-40.5z" />
    <glyph glyph-name="seven" unicode="7" 
d="M125 1282v152h856v-56l-590 -1378h-166l514 1200l90 100l-120 -18h-584z" />
    <glyph glyph-name="eight" unicode="8" 
d="M139 342c0 86 22.502 160.834 67.502 224.501s115.5 121.167 211.5 172.5c-34 20.667 -65.667 42.334 -95 65.001s-55.333 48.334 -78 77.001s-40.5 60.667 -53.5 96s-19.5 76.333 -19.5 123c0 53.333 9.16699 101.833 27.5 145.5s45 81.167 80 112.5
s76.667 55.833 125 73.5s103.166 26.5 164.499 26.5c57.333 0 109.333 -8.16699 156 -24.5s86 -38.833 118 -67.5s56.833 -62.834 74.5 -102.501s26.5 -83.167 26.5 -130.5c0 -78 -17.667 -146.667 -53 -206s-94 -117.666 -176 -174.999
c35.333 -20.667 69 -43.334 101 -68.001s60 -52 84 -82s42.833 -63.833 56.5 -101.5s20.5 -80.167 20.5 -127.5c0 -58.667 -9.5 -112.334 -28.5 -161.001s-47 -90.334 -84 -125.001s-82.167 -62 -135.5 -82s-114 -30 -182 -30c-65.333 0 -123.333 9.66699 -174 29
s-93.334 45.333 -128.001 78s-61 71.167 -79 115.5s-27 92.5 -27 144.5zM299.002 362.001c0 -32.667 5.49902 -64 16.499 -94s27.333 -55.833 49 -77.5s48.667 -39 81 -52s69.5 -19.5 111.5 -19.5c34 0 66.667 5.16699 98 15.5s59 25.333 83 45s43.167 44.834 57.5 75.501
s21.5 66.334 21.5 107.001s-8.16699 76.5 -24.5 107.5s-37.833 59.167 -64.5 84.5s-57 48.166 -91 68.499s-69.667 40.166 -107 59.499c-83.333 -46.667 -142.666 -98.667 -177.999 -156s-53 -112 -53 -164zM332.001 1104c0 -38 7.50293 -71.834 22.5029 -101.501
s35.167 -56 60.5 -79s54.333 -44.5 87 -64.5s66.667 -38.667 102 -56c61.333 48 106.666 95.167 135.999 141.5s44 97.5 44 153.5c0 69.333 -21.5 122.833 -64.5 160.5s-94.5 56.5 -154.5 56.5c-36.667 0 -69.334 -6.16699 -98.001 -18.5s-53.334 -28 -74.001 -47
s-36 -41.167 -46 -66.5s-15 -51.666 -15 -78.999z" />
    <glyph glyph-name="nine" unicode="9" 
d="M106 999c0 65.333 9.66406 126.167 28.9971 182.5s47.333 105 84 146s82.667 73 138 96s120 34.5 194 34.5c139.333 0 247.833 -45 325.5 -135s116.5 -217 116.5 -381c0 -154 -17.333 -288.667 -52 -404s-82.667 -212.666 -144 -291.999s-134 -141.166 -218 -185.499
s-175.333 -72.833 -274 -85.5l-37 131c79.333 12 150.833 35.167 214.5 69.5s118.334 77.5 164.001 129.5s82.834 111.167 111.501 177.5s48.334 138.166 59.001 215.499c-36.667 -44 -77.167 -74.333 -121.5 -91s-102.833 -25 -175.5 -25
c-56 0 -108.833 9.16699 -158.5 27.5s-93.667 45.166 -132 80.499s-68.5 79 -90.5 131s-33 111.333 -33 178zM275.997 1016c0 -96.667 25.668 -169.332 77.001 -217.999s118.666 -73 201.999 -73c66.667 0 124 11 172 33s82 50.667 102 86c2.66699 18 4.16699 33.667 4.5 47
s0.5 27.666 0.5 42.999c0 49.333 -5.83301 96.833 -17.5 142.5s-29.167 86.5 -52.5 122.5s-53.833 64.333 -91.5 85s-81.5 31 -131.5 31c-83.333 0 -148.333 -26.333 -195 -79s-70 -126 -70 -220z" />
    <glyph glyph-name="colon" unicode=":" horiz-adv-x="448" 
d="M186 94c0 36.667 10.667 65.667 32 87s49.666 32 84.999 32c36.667 0 66 -10.5 88 -31.5s33 -50.167 33 -87.5c0 -35.333 -11 -64 -33 -86s-51.333 -33 -88 -33c-35.333 0 -63.666 11 -84.999 33s-32 50.667 -32 86zM186 920c0 36.667 10.667 65.5 32 86.5
s49.666 31.5 84.999 31.5c36.667 0 66 -10.5 88 -31.5s33 -49.833 33 -86.5c0 -35.333 -11 -64 -33 -86s-51.333 -33 -88 -33c-35.333 0 -63.666 11 -84.999 33s-32 50.667 -32 86z" />
    <glyph glyph-name="semicolon" unicode=";" horiz-adv-x="524" 
d="M168 -225c49.333 19.333 85.834 49 109.501 89s35.5 80.667 35.5 122c-12 -4 -23.333 -6 -34 -6c-27.333 0 -50.333 9.16699 -69 27.5s-28 45.166 -28 80.499c0 32.667 11 59.334 33 80.001s50 31 84 31c42 0 76.333 -15 103 -45s40 -73.667 40 -131
c0 -49.333 -6.83301 -92.5 -20.5 -129.5s-31.334 -68.833 -53.001 -95.5s-45.5 -48.5 -71.5 -65.5s-52 -29.5 -78 -37.5zM197.001 920c0 36.667 10.5 65.5 31.5 86.5s49.167 31.5 84.5 31.5c36.667 0 66 -10.5 88 -31.5s33 -49.833 33 -86.5
c0 -35.333 -10.833 -64 -32.5 -86s-51.167 -33 -88.5 -33c-35.333 0 -63.5 11 -84.5 33s-31.5 50.667 -31.5 86z" />
    <glyph glyph-name="less" unicode="&#x3c;" horiz-adv-x="1034" 
d="M86 625v59l774 473l78 -127l-485 -297l-187 -78l185 -65l497 -295l-78 -123z" />
    <glyph glyph-name="equal" unicode="=" horiz-adv-x="1034" 
d="M82 449v147h868v-147h-868zM82 788v148h868v-148h-868z" />
    <glyph glyph-name="greater" unicode="&#x3e;" horiz-adv-x="1034" 
d="M86 1032l78 125l784 -452v-60l-774 -473l-78 125l486 297l186 78l-184 65z" />
    <glyph glyph-name="question" unicode="?" horiz-adv-x="892" 
d="M76 1356c52 31.333 106.669 56.1689 164.002 74.502s128.333 27.5 213 27.5c60 0 112.833 -8.5 158.5 -25.5s83.834 -40.5 114.501 -70.5s53.5 -65.5 68.5 -106.5s22.5 -84.833 22.5 -131.5c0 -61.333 -9.16699 -114.833 -27.5 -160.5s-41.5 -87.334 -69.5 -125.001
s-58 -72.834 -90 -105.501s-62 -67.167 -90 -103.5s-51.333 -75.5 -70 -117.5s-28 -92 -28 -150h-135c-1.33301 6.66699 -2 14.167 -2 22.5v23.5c0 57.333 8.5 107.833 25.5 151.5s38.167 83.5 63.5 119.5s52.666 69.667 81.999 101s56.666 63.166 81.999 95.499
s46.5 66.5 63.5 102.5s25.5 77.333 25.5 124c0 62.667 -18 113.834 -54 153.501s-96.333 59.5 -181 59.5c-49.333 0 -99.333 -8.5 -150 -25.5s-94.334 -37.167 -131.001 -60.5zM266.002 94.0029c0 36.667 10.667 65.667 32 87s49.666 32 84.999 32
c36.667 0 66 -10.5 88 -31.5s33 -50.167 33 -87.5c0 -35.333 -11 -64 -33 -86s-51.333 -33 -88 -33c-35.333 0 -63.666 11 -84.999 33s-32 50.667 -32 86z" />
    <glyph glyph-name="at" unicode="@" horiz-adv-x="2179" 
d="M178 483c0 148.667 25.666 283.17 76.999 403.503s120.666 222.833 207.999 307.5s189 149.834 305 195.501s239 68.5 369 68.5c122.667 0 236.5 -18 341.5 -54s196.167 -87.833 273.5 -155.5s138.166 -150.334 182.499 -248.001s66.5 -208.5 66.5 -332.5
c0 -87.333 -15 -171 -45 -251s-70.667 -150 -122 -210s-111.166 -108.167 -179.499 -144.5s-140.5 -54.5 -216.5 -54.5c-57.333 0 -103.166 12.333 -137.499 37s-51.5 70.334 -51.5 137.001c0 12 0.666992 25.333 2 40s3.33301 30 6 46h-8
c-19.333 -31.333 -41.833 -62.333 -67.5 -93s-54.5 -58.334 -86.5 -83.001s-66.167 -44.834 -102.5 -60.501s-74.166 -23.5 -113.499 -23.5c-32.667 0 -64.167 7.16699 -94.5 21.5s-56.333 35.166 -78 62.499s-39 59.833 -52 97.5s-19.5 80.167 -19.5 127.5
c0 87.333 14.333 173.333 43 258s67.167 159.834 115.5 225.501s105 118.667 170 159s133.5 60.5 205.5 60.5c50.667 0 91 -7.5 121 -22.5s59.333 -33.5 88 -55.5l70 64h70l-105 -588c-6.66699 -35.333 -11.667 -67 -15 -95s-5 -53 -5 -75c0 -34 5.66699 -58.833 17 -74.5
s31.333 -23.5 60 -23.5c46.667 0 92.834 12.167 138.501 36.5s86.334 59 122.001 104s64.667 99.333 87 163s33.5 135.167 33.5 214.5c0 105.333 -17.667 198.166 -53 278.499s-85.166 148.166 -149.499 203.499s-140.833 97.333 -229.5 126s-186.334 43 -293.001 43
c-110.667 0 -214.667 -20.5 -312 -61.5s-181.833 -97.667 -253.5 -170s-128.334 -159 -170.001 -260s-62.5 -210.833 -62.5 -329.5c0 -121.333 18.667 -229.833 56 -325.5s90.833 -176.334 160.5 -242.001s153 -115.5 250 -149.5s204.833 -51 323.5 -51
c39.333 0 84.333 4.33301 135 13s96.667 23.334 138 44.001l41 -131c-61.333 -26 -118 -43.5 -170 -52.5s-108 -13.5 -168 -13.5c-126.667 0 -245.834 19.167 -357.501 57.5s-208.667 95 -291 170s-147.5 168.167 -195.5 279.5s-72 240 -72 386zM794.999 344.003
c0 -53.333 10.834 -98.666 32.501 -135.999s61.167 -56 118.5 -56c27.333 0 55.666 8.83301 84.999 26.5s58.333 41.834 87 72.501s56 65.167 82 103.5s49.333 77.166 70 116.499l61 334c-23.333 27.333 -46.5 46.166 -69.5 56.499s-52.167 15.5 -87.5 15.5
c-53.333 0 -103.333 -16.167 -150 -48.5s-86.667 -74 -120 -125s-59.833 -108.333 -79.5 -172s-29.5 -126.167 -29.5 -187.5z" />
    <glyph glyph-name="A" unicode="A" horiz-adv-x="1198" 
d="M16 0l543 1456h78l545 -1456h-178l-148 397h-528l-144 -397h-168zM383 545h422l-160 436l-51 217h-2l-51 -221z" />
    <glyph glyph-name="B" unicode="B" horiz-adv-x="1196" 
d="M174 10l-0.00195312 1411c50.667 8 109.5 14.833 176.5 20.5s139.833 8.5 218.5 8.5c53.333 0 107.666 -4.5 162.999 -13.5s105.5 -26 150.5 -51s82.167 -60.167 111.5 -105.5s44 -103.333 44 -174c0 -34 -5.33301 -68.833 -16 -104.5s-27 -68.834 -49 -99.501
s-50 -57.667 -84 -81s-74.333 -41 -121 -53v-8c40.667 -6.66699 79.834 -18.334 117.501 -35.001s70.834 -39.334 99.501 -68.001s51.834 -63.334 69.501 -104.001s26.5 -89 26.5 -145c0 -74 -15.333 -138 -46 -192s-70.834 -98 -120.501 -132s-106.667 -59.167 -171 -75.5
s-129.833 -24.5 -196.5 -24.5h-82c-31.333 0 -64.166 1 -98.499 3s-68.5 4.66699 -102.5 8s-64 8.33301 -90 15zM343.998 145.004c9.33301 -2.66699 22.999 -4.66699 40.999 -6s37.167 -2.66602 57.5 -3.99902s41.333 -2.33301 63 -3s40.834 -1 57.501 -1
c44 0 86.5 5.16699 127.5 15.5s77.167 26.666 108.5 48.999s56.166 50 74.499 83s27.5 71.833 27.5 116.5c0 56 -11.167 101.167 -33.5 135.5s-51.666 61 -87.999 80s-77 31.833 -122 38.5s-90.167 10 -135.5 10h-178v-514zM343.997 803.004l106.998 -0.000976562
c23.333 0 51.333 0.666992 84 2s59.667 3.33301 81 6c32.667 10.667 63.5 23.834 92.5 39.501s54.667 34.167 77 55.5s40 46 53 74s19.5 58.333 19.5 91c0 45.333 -8.5 82.666 -25.5 111.999s-39.833 52.833 -68.5 70.5s-61.5 30.334 -98.5 38.001s-74.5 11.5 -112.5 11.5
c-45.333 0 -86.666 -1.16699 -123.999 -3.5s-65.666 -5.5 -84.999 -9.5v-487z" />
    <glyph glyph-name="C" unicode="C" horiz-adv-x="1169" 
d="M115 717c0 134 17.999 247.671 53.999 341.004s83.667 169.666 143 228.999s126 102.666 200 129.999s149 41 225 41c82 0 149 -4.33301 201 -13s96.333 -20.667 133 -36l-41 -149c-65.333 31.333 -158.666 47 -279.999 47c-56 0 -111.333 -10.333 -166 -31
s-103.5 -54.167 -146.5 -100.5s-77.5 -107 -103.5 -182s-39 -167.167 -39 -276.5c0 -98 12.333 -184 37 -258s58.5 -135.5 101.5 -184.5s93.5 -85.833 151.5 -110.5s121 -37 189 -37c61.333 0 115 6.16699 161 18.5s84.667 28.166 116 47.499l41 -134
c-40.667 -31.333 -92.5 -53.166 -155.5 -65.499s-130.167 -18.5 -201.5 -18.5c-86 0 -166.5 14.667 -241.5 44s-140.5 74.166 -196.5 134.499s-100.333 137.166 -133 230.499s-49 204.333 -49 333z" />
    <glyph glyph-name="D" unicode="D" horiz-adv-x="1339" 
d="M174 -2l-0.000976562 1436c26 4 55 7 87 9s65.5 3.33301 100.5 4l102.5 2c33.333 0.666992 64.333 1 93 1c114.667 0 214 -17.833 298 -53.5s153.333 -85.167 208 -148.5s95.334 -139.333 122.001 -228s40 -186.334 40 -293.001c0 -96.667 -12.667 -189.834 -38 -279.501
s-65.333 -169 -120 -238s-125.667 -124.167 -213 -165.5s-193 -62 -317 -62c-22 0 -50.5 0.333008 -85.5 1s-70.833 2 -107.5 4s-70.667 3.66699 -102 5s-54 3.33301 -68 6zM343.999 141.002c6.66699 -1.33301 19.665 -2.33887 38.998 -3.00586l59.5 -2l59 -2
c19 -0.666992 32.167 -1 39.5 -1c95.333 0 175.5 16.333 240.5 49s116.833 76.667 155.5 132s66.167 118.833 82.5 190.5s24.5 145.834 24.5 222.501c0 66.667 -7.5 133.834 -22.5 201.501s-40.833 128.834 -77.5 183.501s-86.167 99.334 -148.5 134.001
s-140.5 52 -234.5 52h-58.5c-21 0 -41.667 -0.666992 -62 -2s-39.166 -2.66602 -56.499 -3.99902s-30.666 -2.66602 -39.999 -3.99902v-1147z" />
    <glyph glyph-name="E" unicode="E" horiz-adv-x="1097" 
d="M174 0v1434h780v-152h-610v-469h559v-151h-559v-510h621v-152h-791z" />
    <glyph glyph-name="F" unicode="F" horiz-adv-x="1058" 
d="M174 0v1434h780v-152h-610v-489h569v-152h-569v-641h-170z" />
    <glyph glyph-name="G" unicode="G" horiz-adv-x="1253" 
d="M115 717c0 132.667 19.001 246.003 57.001 340.003s87.833 170.667 149.5 230s130.667 102.666 207 129.999s152.833 41 229.5 41c82 0 149.5 -4.33301 202.5 -13s98.167 -20.667 135.5 -36l-43 -149c-65.333 31.333 -159 47 -281 47c-57.333 0 -114.333 -10 -171 -30
s-107.5 -53.167 -152.5 -99.5s-81.833 -107 -110.5 -182s-43 -167.833 -43 -278.5c0 -101.333 11.667 -188.833 35 -262.5s55.666 -134.667 96.999 -183s91.5 -84.5 150.5 -108.5s123.167 -36 192.5 -36c87.333 0 161.666 17 222.999 51v400l-336 40v97h482v-631
c-22 -16.667 -48.333 -31.834 -79 -45.501s-63.5 -25.167 -98.5 -34.5s-71.167 -16.5 -108.5 -21.5s-74 -7.5 -110 -7.5c-91.333 0 -175.166 14.667 -251.499 44s-142.5 74.5 -198.5 135.5s-99.667 138.167 -131 231.5s-47 203.666 -47 330.999z" />
    <glyph glyph-name="H" unicode="H" horiz-adv-x="1376" 
d="M174 0v1434h170v-625h688v625h170v-1434h-170v657h-688v-657h-170z" />
    <glyph glyph-name="I" unicode="I" horiz-adv-x="595" 
d="M213 0v1434h170v-1434h-170z" />
    <glyph glyph-name="J" unicode="J" horiz-adv-x="595" 
d="M-70 12l33 146.001c38 -18 79.667 -27 125 -27c57.333 0 95.166 20.167 113.499 60.5s27.5 95.166 27.5 164.499v1078h170v-1119c0 -109.333 -24.167 -192.5 -72.5 -249.5s-121.833 -85.5 -220.5 -85.5c-10.667 0 -24.167 0.666992 -40.5 2s-32.666 3.33301 -48.999 6
s-32.333 6 -48 10s-28.5 8.66699 -38.5 14z" />
    <glyph glyph-name="K" unicode="K" horiz-adv-x="1249" 
d="M174 0v1434h170v-668l92 29l482 639h196l-479 -617l-86 -67l104 -82l525 -668h-215l-523 664h-96v-664h-170z" />
    <glyph glyph-name="L" unicode="L" horiz-adv-x="1058" 
d="M174 0v1434h170v-1282h678v-152h-848z" />
    <glyph glyph-name="M" unicode="M" horiz-adv-x="1619" 
d="M174 0v1434h127l449 -734l67 -159h4l64 164l428 729h133v-1434h-170v963l20 215h-10l-78 -197l-372 -647h-52l-395 649l-74 195h-10l29 -213v-965h-160z" />
    <glyph glyph-name="N" unicode="N" horiz-adv-x="1378" 
d="M174 0v1456h90l686 -956l107 -197h10l-23 197v934h160v-1457h-90l-682 961l-110 207h-9l21 -207v-938h-160z" />
    <glyph glyph-name="O" unicode="O" horiz-adv-x="1400" 
d="M115 717c0 238.667 50.501 421.832 151.501 549.499s244.833 191.5 431.5 191.5c101.333 0 188.833 -17.667 262.5 -53s134.834 -85.5 183.501 -150.5s84.5 -142.833 107.5 -233.5s34.5 -192 34.5 -304c0 -238.667 -50.833 -422 -152.5 -550s-246.834 -192 -435.501 -192
c-100 0 -186.333 17.833 -259 53.5s-133.334 85.834 -182.001 150.501s-84.5 142.5 -107.5 233.5s-34.5 192.5 -34.5 304.5zM295.001 716.998c0 -79.333 7.83301 -154.501 23.5 -225.501s39.834 -133.5 72.501 -187.5s74.667 -97 126 -129s111.666 -48 180.999 -48
c126.667 0 226.334 48.167 299.001 144.5s109 244.833 109 445.5c0 78 -7.83301 152.833 -23.5 224.5s-40.334 134.334 -74.001 188.001s-76 96.667 -127 129s-112.167 48.5 -183.5 48.5c-125.333 0 -223.833 -48.167 -295.5 -144.5s-107.5 -244.833 -107.5 -445.5z" />
    <glyph glyph-name="P" unicode="P" horiz-adv-x="1144" 
d="M174 0v1419c52 12 108 20.167 168 24.5s119.333 6.5 178 6.5c62.667 0 126.5 -6.16699 191.5 -18.5s124.167 -34.833 177.5 -67.5s96.666 -77.667 129.999 -135s50 -130.333 50 -219c0 -87.333 -15.667 -161.166 -47 -221.499s-73 -109.166 -125 -146.499
s-111.5 -64.166 -178.5 -80.499s-135.833 -24.5 -206.5 -24.5h-33.5c-15.667 0 -32.167 0.333008 -49.5 1s-34.166 1.66699 -50.499 3s-27.833 2.66602 -34.5 3.99902v-545h-170zM344 695.998c6.66699 -2.66699 17.498 -4.33301 32.498 -5s30.833 -1.33398 47.5 -2.00098
s32.5 -1 47.5 -1h32.5c46.667 0 92.834 4.5 138.501 13.5s86.834 25 123.501 48s66.334 55.667 89.001 98s34 96.5 34 162.5c0 56 -10.667 102.667 -32 140s-49.333 67.333 -84 90s-73.834 38.834 -117.501 48.501s-87.5 14.5 -131.5 14.5
c-35.333 0 -69.333 -0.833008 -102 -2.5s-58.667 -5.16699 -78 -10.5v-594z" />
    <glyph glyph-name="Q" unicode="Q" horiz-adv-x="1400" 
d="M115 717c0 238.667 50.501 421.832 151.501 549.499s244.833 191.5 431.5 191.5c101.333 0 188.833 -17.667 262.5 -53s134.834 -85.5 183.501 -150.5s84.5 -142.833 107.5 -233.5s34.5 -192 34.5 -304c0 -238.667 -50.833 -422 -152.5 -550s-246.834 -192 -435.501 -192
c-100 0 -186.333 17.833 -259 53.5s-133.334 85.834 -182.001 150.501s-84.5 142.5 -107.5 233.5s-34.5 192.5 -34.5 304.5zM295.001 716.998c0 -79.333 7.83301 -154.501 23.5 -225.501s39.834 -133.5 72.501 -187.5s74.667 -97 126 -129s111.666 -48 180.999 -48
c126.667 0 226.334 48.167 299.001 144.5s109 244.833 109 445.5c0 78 -7.83301 152.833 -23.5 224.5s-40.334 134.334 -74.001 188.001s-76 96.667 -127 129s-112.167 48.5 -183.5 48.5c-125.333 0 -223.833 -48.167 -295.5 -144.5s-107.5 -244.833 -107.5 -445.5z
M434.001 -100.003c19.333 4 37.833 7.33301 55.5 10s36.167 4 55.5 4c57.333 0 114.333 -7.16699 171 -21.5s114.334 -30 173.001 -47s118.667 -32.667 180 -47s126.333 -21.5 195 -21.5c60 0 119.333 6.66699 178 20v-147c-32.667 -9.33301 -64.834 -15.833 -96.501 -19.5
s-63.167 -5.5 -94.5 -5.5c-68 0 -134.5 7.16699 -199.5 21.5s-127.833 30 -188.5 47l-175 47c-56 14.333 -109.333 21.5 -160 21.5c-32.667 0 -64 -4 -94 -12v150z" />
    <glyph glyph-name="R" unicode="R" horiz-adv-x="1218" 
d="M174 0l-0.000976562 1419c52 9.33301 111.833 16.833 179.5 22.5s129.5 8.5 185.5 8.5c62.667 0 122.334 -6.83301 179.001 -20.5s106.5 -36.167 149.5 -67.5s77.5 -72.333 103.5 -123s39 -112 39 -184c0 -112 -30.833 -202.833 -92.5 -272.5
s-139.5 -116.167 -233.5 -139.5l98 -76l357 -567h-199l-395 618l-201 31v-649h-170zM343.999 762h160c94 0 171.667 23.167 233 69.5s92 118.833 92 217.5c0 74 -25.167 134.833 -75.5 182.5s-120.5 71.5 -210.5 71.5h-55.5c-19 0 -37.333 -0.833008 -55 -2.5
s-34.5 -3.16699 -50.5 -4.5s-28.667 -3.33301 -38 -6v-528z" />
    <glyph glyph-name="S" unicode="S" horiz-adv-x="1087" 
d="M94 51l58.0029 153.993c31.333 -18 77.666 -35.5 138.999 -52.5s130.333 -25.5 207 -25.5c45.333 0 87.666 4.5 126.999 13.5s73.333 23.333 102 43s51.5 44.667 68.5 75s25.5 65.833 25.5 106.5c0 57.333 -17 104 -51 140s-76.667 68 -128 96s-107 54.333 -167 79
s-115.667 54.334 -167 89.001s-94 77.667 -128 129s-51 116.666 -51 195.999c0 112 38.833 200.667 116.5 266s188.5 98 332.5 98c83.333 0 159 -6.16699 227 -18.5s121.333 -27.833 160 -46.5l-52 -150c-31.333 15.333 -77.333 29.833 -138 43.5
s-129.334 20.5 -206.001 20.5c-90 0 -157.5 -20.167 -202.5 -60.5s-67.5 -87.833 -67.5 -142.5c0 -53.333 17 -97.666 51 -132.999s76.667 -67 128 -95s107 -55.667 167 -83s115.667 -59.166 167 -95.499s94 -79.666 128 -129.999s51 -113.166 51 -188.499
c0 -61.333 -10.833 -116.666 -32.5 -165.999s-53.667 -91.666 -96 -126.999s-93.666 -62.666 -153.999 -81.999s-128.5 -29 -204.5 -29c-102.667 0 -187.334 8 -254.001 24s-118.667 33.333 -156 52z" />
    <glyph glyph-name="T" unicode="T" horiz-adv-x="1136" 
d="M37 1282v152h1063v-152h-447v-1282h-170v1282h-446z" />
    <glyph glyph-name="U" unicode="U" horiz-adv-x="1335" 
d="M174 444v990.004h170v-910c0 -72.667 7.16699 -133.834 21.5 -183.501s35.833 -89.834 64.5 -120.501s64.5 -52.834 107.5 -66.501s93.167 -20.5 150.5 -20.5c110.667 0 189.834 30.333 237.501 91s71.5 160.667 71.5 300v910h164v-957
c0 -86 -11.167 -160.333 -33.5 -223s-54.333 -114.167 -96 -154.5s-91.834 -70 -150.501 -89s-123.667 -28.5 -195 -28.5c-169.333 0 -297 38.167 -383 114.5s-129 192.166 -129 347.499z" />
    <glyph glyph-name="V" unicode="V" horiz-adv-x="1163" 
d="M-4 1434h186l365 -985l49 -218h2l53 222l346 981h170l-542 -1457h-76z" />
    <glyph glyph-name="W" unicode="W" horiz-adv-x="1695" 
d="M16 1434h181l258 -961l32 -237h2l35 241l295 957h82l297 -961l35 -237h2l37 241l241 957h166l-399 -1457h-94l-291 961l-37 217h-10l-37 -219l-291 -959h-94z" />
    <glyph glyph-name="X" unicode="X" horiz-adv-x="1265" 
d="M53 0l477 729l-436 705h205l291 -486l51 -117l49 117l307 486h189l-451 -691l471 -743h-198l-324 514l-55 123l-54 -123l-331 -514h-191z" />
    <glyph glyph-name="Y" unicode="Y" horiz-adv-x="1142" 
d="M16 1434h199l336 -627l35 -125h2l37 129l321 623h182l-469 -863v-571h-170v569z" />
    <glyph glyph-name="Z" unicode="Z" 
d="M78 0v154l723 1046l86 82h-809v152h962v-154l-727 -1053l-86 -75h813v-152h-962z" />
    <glyph glyph-name="bracketleft" unicode="[" horiz-adv-x="622" 
d="M174 -471v1905h371v-144h-211v-1618h211v-143h-371z" />
    <glyph glyph-name="backslash" unicode="\" horiz-adv-x="778" 
d="M-76 1401l137 57l756 -1685l-135 -60z" />
    <glyph glyph-name="bracketright" unicode="]" horiz-adv-x="622" 
d="M78 -328h213v1618h-213v144h373v-1905h-373v143z" />
    <glyph glyph-name="asciicircum" unicode="^" horiz-adv-x="1024" 
d="M98 891l381 565h60l346 -565h-168l-164 276l-47 142l-64 -144l-188 -274h-156z" />
    <glyph glyph-name="underscore" unicode="_" horiz-adv-x="835" 
d="M0 -276h836v-144h-836v144z" />
    <glyph glyph-name="grave" unicode="`" horiz-adv-x="573" 
d="M123 1432v43h194l134 -306h-93z" />
    <glyph glyph-name="a" unicode="a" horiz-adv-x="1015" 
d="M80 274c0 60 12.332 110.161 36.999 150.494s59.167 72.5 103.5 96.5s97.5 41.167 159.5 51.5s130.667 15.5 206 15.5h56.5c18.333 0 36.833 -1.33301 55.5 -4c4 40.667 6.33301 77.334 7 110.001c0 75.333 -15.167 128 -45.5 158s-84.833 45 -163.5 45
c-23.333 0 -48.333 -1.66699 -75 -5s-54 -8.16602 -82 -14.499s-54.667 -13.833 -80 -22.5s-47.333 -18.667 -66 -30l-52 123c52 31.333 112.5 54.5 181.5 69.5s141.167 22.5 216.5 22.5c70.667 0 127.5 -9.5 170.5 -28.5s75.833 -43.833 98.5 -74.5s37.667 -64.5 45 -101.5
s11 -73.833 11 -110.5c0 -82 -2 -161.833 -6 -239.5s-6 -151.5 -6 -221.5c0 -50.667 2 -98.5 6 -143.5s11.667 -86.5 23 -124.5h-121l-43 143h-10c-12 -19.333 -27.333 -38.166 -46 -56.499s-41 -34.666 -67 -48.999s-56 -26.166 -90 -35.499s-73 -14 -117 -14
s-84.667 6.83301 -122 20.5s-69.666 33 -96.999 58s-48.833 55.333 -64.5 91s-23.5 75.834 -23.5 120.501zM249.999 290.994c0 -48 17.002 -87.333 51.002 -118s77.667 -46 131 -46c38 0 72.167 5.16699 102.5 15.5s56.333 23.333 78 39s39.667 33 54 52
s24.833 37.5 31.5 55.5v170c-19.333 1.33301 -38.833 2.33301 -58.5 3s-38.834 1 -57.501 1c-42 0 -83.333 -2.33301 -124 -7s-76.334 -13.5 -107.001 -26.5s-55.167 -30.833 -73.5 -53.5s-27.5 -51 -27.5 -85z" />
    <glyph glyph-name="b" unicode="b" horiz-adv-x="1105" 
d="M158 59l0.00195312 1375h164v-510h8c31.333 39.333 71.166 70 119.499 92s101.166 33 158.499 33c132.667 0 232.167 -42.333 298.5 -127s99.5 -216 99.5 -394c0 -178.667 -43.833 -314.334 -131.5 -407.001s-210.5 -139 -368.5 -139c-76.667 0 -146 8.16699 -208 24.5
s-108.667 33.833 -140 52.5zM322.002 170.001c26 -15.333 57.3359 -26.6689 94.0029 -34.002s74.667 -11 114 -11c92.667 0 166.834 32.833 222.501 98.5s83.5 167.834 83.5 306.501c0 53.333 -4.83301 103.333 -14.5 150s-24.834 86.334 -45.501 119.001
s-46.834 58.5 -78.501 77.5s-70.834 28.5 -117.501 28.5c-68 0 -123.333 -19 -166 -57s-73.334 -92 -92.001 -162v-516z" />
    <glyph glyph-name="c" unicode="c" horiz-adv-x="923" 
d="M100 512c0 173.333 38.333 306.167 115 398.5s186.667 138.5 330 138.5c65.333 0 120.833 -5.16699 166.5 -15.5s87.167 -25.166 124.5 -44.499l-48 -141c-31.333 18 -66 32 -104 42s-79 15 -123 15c-194 0 -291 -131 -291 -393c0 -52 5.16699 -101.5 15.5 -148.5
s27.5 -88.667 51.5 -125s55.333 -65.333 94 -87s86.667 -32.5 144 -32.5c49.333 0 93.5 7.5 132.5 22.5s70.833 32.167 95.5 51.5l53 -125c-40.667 -30 -89 -53 -145 -69s-114.667 -24 -176 -24c-79.333 0 -146.333 12.667 -201 38s-99.5 61.666 -134.5 108.999
s-60.333 104 -76 170s-23.5 139.333 -23.5 220z" />
    <glyph glyph-name="d" unicode="d" horiz-adv-x="1101" 
d="M100 508c0 174.667 41.333 307.334 124 398.001s196.334 136 341.001 136c50.667 0 90.667 -2.66699 120 -8s61 -14 95 -26v426h164v-1082c0 -69.333 0.666992 -132.333 2 -189s7.66602 -112.334 18.999 -167.001h-111l-41 145h-8c-27.333 -48 -67 -87.667 -119 -119
s-112.667 -47 -182 -47c-136.667 0 -238.167 43 -304.5 129s-99.5 220.667 -99.5 404zM270 508c0 -56 4.50195 -107.833 13.502 -155.5s23.667 -88.667 44 -123s47.166 -61.333 80.499 -81s74 -29.5 122 -29.5c69.333 0 124.666 18 165.999 54s69.333 91 84 165v508
c-24.667 19.333 -52.667 33 -84 41s-73 12 -125 12c-94 0 -167.667 -31 -221 -93s-80 -161.333 -80 -298z" />
    <glyph glyph-name="e" unicode="e" horiz-adv-x="1040" 
d="M100 512c0 174.667 39 307.836 117 399.503s189.333 137.5 334 137.5c46.667 0 93.167 -5.16699 139.5 -15.5s87.833 -29.833 124.5 -58.5s66.667 -69.334 90 -122.001s35 -122 35 -208c0 -45.333 -4 -95 -12 -149h-658c0 -60 6.16699 -113.333 18.5 -160
s31.5 -86 57.5 -118s59.833 -56.5 101.5 -73.5s92.5 -25.5 152.5 -25.5c46.667 0 93.167 8.16699 139.5 24.5s81.166 35.5 104.499 57.5l61 -119c-40.667 -32.667 -92.167 -58.667 -154.5 -78s-128.166 -29 -197.499 -29c-78 0 -145.667 12.667 -203 38
s-104.333 61.666 -141 108.999s-64 103.666 -82 168.999s-27 139 -27 221zM272 625.002h508c0 104 -19.667 176.667 -59 218s-95.333 62 -168 62c-80.667 0 -145.167 -21.167 -193.5 -63.5s-77.5 -114.5 -87.5 -216.5z" />
    <glyph glyph-name="f" unicode="f" horiz-adv-x="653" 
d="M45 881v143.001h160v57c0 62.667 5.16699 117.334 15.5 164.001s27 84.667 50 114s53 51.166 90 65.499s82.833 21.5 137.5 21.5c44 0 82.667 -2.66699 116 -8s68.333 -15.666 105 -30.999l-37 -137c-31.333 13.333 -61 22.166 -89 26.499s-54.333 6.5 -79 6.5
c-35.333 0 -63 -5.5 -83 -16.5s-34.333 -27.167 -43 -48.5s-14 -47.333 -16 -78s-3 -66.334 -3 -107.001v-29h272v-143h-272v-881h-164v881h-160z" />
    <glyph glyph-name="g" unicode="g" horiz-adv-x="1099" 
d="M100 508c0 174.667 41.667 307.334 125 398.001s206.333 136 369 136c78 0 144.667 -6 200 -18s104.666 -26.333 147.999 -43v-1028c0 -132.667 -35.167 -230.334 -105.5 -293.001s-174.5 -94 -312.5 -94c-82 0 -147.833 5.16699 -197.5 15.5s-92.167 23.5 -127.5 39.5
l43 139c31.333 -12 66 -23.5 104 -34.5s88 -16.5 150 -16.5c57.333 0 104 5.16699 140 15.5s65 27.5 87 51.5s37 54.667 45 92s12 82 12 134v98h-8c-27.333 -39.333 -62.166 -69.666 -104.499 -90.999s-97.5 -32 -165.5 -32c-138 0 -239.5 43.167 -304.5 129.5
s-97.5 220.166 -97.5 401.499zM270 510c0 -57.333 4.83398 -109.833 14.501 -157.5s24.667 -88.667 45 -123s46.833 -61 79.5 -80s73 -28.5 121 -28.5c69.333 0 124 17.333 164 52s68 89 84 163v524c-54.667 26 -124.334 39 -209.001 39
c-92.667 0 -165.667 -31.333 -219 -94s-80 -161 -80 -295z" />
    <glyph glyph-name="h" unicode="h" horiz-adv-x="1120" 
d="M158 0l0.000976562 1434h164v-525h8c35.333 42 77.833 75.833 127.5 101.5s111.5 38.5 185.5 38.5c57.333 0 107.166 -6.5 149.499 -19.5s77.5 -36 105.5 -69s48.5 -77.167 61.5 -132.5s19.5 -125.333 19.5 -210v-618h-164v584c0 53.333 -3 100 -9 140
s-17.167 73.333 -33.5 100s-38.5 46.834 -66.5 60.501s-64.667 20.5 -110 20.5c-64 0 -122 -20.833 -174 -62.5s-85.333 -95.167 -100 -160.5v-682h-164z" />
    <glyph glyph-name="i" unicode="i" horiz-adv-x="548" 
d="M158 1335c0 31.333 10.5 58.333 31.5 81s47.833 34 80.5 34s60.667 -11.333 84 -34s35 -49.667 35 -81s-11.667 -57.166 -35 -77.499s-51.333 -30.5 -84 -30.5s-59.5 10.167 -80.5 30.5s-31.5 46.166 -31.5 77.499zM193 0v1024h163v-1024h-163z" />
    <glyph glyph-name="j" unicode="j" horiz-adv-x="546" 
d="M18 -291c38 0 68.335 5.83203 91.002 17.499s40.167 29.834 52.5 54.501s20.166 55.667 23.499 93s5 81.333 5 132v1018h164v-1079c0 -126.667 -21.833 -221.5 -65.5 -284.5s-113.167 -94.5 -208.5 -94.5c-10.667 0 -20.834 0.333008 -30.501 1s-20.167 1.66699 -31.5 3
v139zM156.002 1335c0 31.333 10.5 58.333 31.5 81s47.833 34 80.5 34s60.667 -11.333 84 -34s35 -49.667 35 -81s-11.667 -57.166 -35 -77.499s-51.333 -30.5 -84 -30.5s-59.5 10.167 -80.5 30.5s-31.5 46.166 -31.5 77.499z" />
    <glyph glyph-name="k" unicode="k" horiz-adv-x="980" 
d="M158 0v1434h164v-873l84 29l317 434h190l-313 -412l-84 -67l102 -82l343 -463h-203l-342 461h-94v-461h-164z" />
    <glyph glyph-name="l" unicode="l" horiz-adv-x="598" 
d="M176 205v1229h164v-1182c0 -48 8.16699 -82.167 24.5 -102.5s39.5 -30.5 69.5 -30.5c18 0 37.167 1.33301 57.5 4s43.5 8.66699 69.5 18l19 -129c-22 -10.667 -52.5 -19.5 -91.5 -26.5s-72.833 -10.5 -101.5 -10.5c-61.333 0 -111.833 17.5 -151.5 52.5
s-59.5 94.167 -59.5 177.5z" />
    <glyph glyph-name="m" unicode="m" horiz-adv-x="1662" 
d="M158 0l0.00195312 1024h114l31 -125h8c36.667 44 79.334 80 128.001 108s112 42 190 42c65.333 0 118.833 -12.667 160.5 -38s74.167 -69.333 97.5 -132c31.333 53.333 74.666 95 129.999 125s117.666 45 186.999 45c57.333 0 105.833 -6.5 145.5 -19.5
s72.5 -36 98.5 -69s44.833 -77.5 56.5 -133.5s17.5 -127 17.5 -213v-614h-164v616c0 49.333 -2.5 92.166 -7.5 128.499s-14.667 66.333 -29 90s-34 41.334 -59 53.001s-58.167 17.5 -99.5 17.5c-68 0 -121.167 -19 -159.5 -57s-65.5 -92.667 -81.5 -164v-684h-164v580
c0 54.667 -2.5 102 -7.5 142s-14.333 73.667 -28 101s-33 47.833 -58 61.5s-58.167 20.5 -99.5 20.5c-62.667 0 -114.834 -19 -156.501 -57s-70.5 -85.667 -86.5 -143v-705h-164z" />
    <glyph glyph-name="n" unicode="n" horiz-adv-x="1120" 
d="M158 0v1024h114l31 -125h8c32.667 44 76.667 80 132 108s121.333 42 198 42c56 0 105.167 -6.5 147.5 -19.5s77.5 -36 105.5 -69s49.167 -77.167 63.5 -132.5s21.5 -125.333 21.5 -210v-618h-164v584c0 106.667 -15.333 186.834 -46 240.501s-87 80.5 -169 80.5
c-72.667 0 -132.5 -19.5 -179.5 -58.5s-79.833 -87.833 -98.5 -146.5v-700h-164z" />
    <glyph glyph-name="o" unicode="o" horiz-adv-x="1097" 
d="M100 512c0 173.333 38.666 306.166 115.999 398.499s188.333 138.5 333 138.5c76.667 0 143.334 -12.667 200.001 -38s103.334 -61.666 140.001 -108.999s63.834 -104 81.501 -170s26.5 -139.333 26.5 -220c0 -173.333 -38.5 -306.166 -115.5 -398.499
s-187.833 -138.5 -332.5 -138.5c-76.667 0 -143.334 12.667 -200.001 38s-103.334 61.666 -140.001 108.999s-64 104 -82 170s-27 139.333 -27 220zM269.999 512c0 -52 5.16699 -101.831 15.5 -149.498s26.5 -89.334 48.5 -125.001s50.667 -64.334 86 -86.001
s78.333 -32.5 129 -32.5h3c183.333 0 275 130 275 390c0 55.333 -5 107 -15 155s-26 89.667 -48 125s-50.667 63.5 -86 84.5s-78.333 31.5 -129 31.5h-3c-184 0 -276 -131 -276 -393z" />
    <glyph glyph-name="p" unicode="p" horiz-adv-x="1107" 
d="M158 -410v1434h112l31 -123h8c31.333 48 72 84.667 122 110s107 38 171 38c136.667 0 238.5 -40.333 305.5 -121s100.5 -212.667 100.5 -396c0 -86 -11.333 -163.333 -34 -232s-54.5 -127 -95.5 -175s-90.5 -85 -148.5 -111s-122.333 -39 -193 -39
c-50.667 0 -90.667 3.16699 -120 9.5s-61 16.833 -95 31.5v-426h-164zM322 178c24.667 -19.333 52.665 -34 83.998 -44s72.666 -15 123.999 -15c94 0 168.833 35.167 224.5 105.5s83.5 173.833 83.5 310.5c0 56 -4.83301 106.833 -14.5 152.5s-25.167 84.5 -46.5 116.5
s-48.666 56.833 -81.999 74.5s-74.666 26.5 -123.999 26.5c-69.333 0 -124.166 -18 -164.499 -54s-68.5 -91 -84.5 -165v-508z" />
    <glyph glyph-name="q" unicode="q" horiz-adv-x="1099" 
d="M100 508c0 176 42.333 309.001 127 399.001s208.334 135 371.001 135c72.667 0 140.667 -6.83301 204 -20.5s110 -27.834 140 -42.501v-1389h-164v512h-8c-27.333 -40.667 -61.833 -72 -103.5 -94s-96.5 -33 -164.5 -33c-136.667 0 -237.834 43.5 -303.501 130.5
s-98.5 221.167 -98.5 402.5zM270 510.001c0 -57.333 4.83398 -110.168 14.501 -158.501s24.667 -89.666 45 -123.999s46.833 -61 79.5 -80s73 -28.5 121 -28.5c69.333 0 124 17.667 164 53s68 90 84 164v524c-50.667 26 -120.334 39 -209.001 39
c-94 0 -167.333 -31.667 -220 -95s-79 -161.333 -79 -294z" />
    <glyph glyph-name="r" unicode="r" horiz-adv-x="696" 
d="M158 0l0.000976562 1024h114l31 -125h8c26 46.667 57.167 82.5 93.5 107.5s82.5 37.5 138.5 37.5c39.333 0 83.666 -6.66699 132.999 -20l-35 -158c-40.667 13.333 -79.667 20.333 -117 21c-58.667 0 -105 -16 -139 -48s-55 -72.667 -63 -122v-717h-164z" />
    <glyph glyph-name="s" unicode="s" horiz-adv-x="862" 
d="M80 51l49 139.001c31.333 -18 72.333 -34.333 123 -49s102 -22 154 -22c58.667 0 107 11.667 145 35s57 65 57 125c0 40.667 -12.167 72.667 -36.5 96s-54.666 42.833 -90.999 58.5s-76 30.667 -119 45s-82.667 32.666 -119 54.999s-66.666 51.333 -90.999 87
s-36.5 83.5 -36.5 143.5c0 98 28 170 84 216s133.667 69 233 69c74 0 135.833 -6.5 185.5 -19.5s93.167 -28.5 130.5 -46.5l-39 -135c-31.333 15.333 -69.333 28.666 -114 39.999s-92 17 -142 17c-60 0 -104 -10.167 -132 -30.5s-42 -55.833 -42 -106.5
c0 -35.333 12.167 -63 36.5 -83s54.666 -37.833 90.999 -53.5s76 -31 119 -46s82.5 -34.833 118.5 -59.5s66.333 -55.667 91 -93s37 -86.666 37 -147.999c0 -44 -7.16699 -85.167 -21.5 -123.5s-36.5 -71 -66.5 -98s-67.167 -48.5 -111.5 -64.5s-96.5 -24 -156.5 -24
c-78 0 -144.333 7.5 -199 22.5s-100.334 32.833 -137.001 53.5z" />
    <glyph glyph-name="t" unicode="t" horiz-adv-x="694" 
d="M23 881l-0.00195312 143h159v203l164 47v-250h279v-143h-279v-568c0 -70.667 8.83301 -120.667 26.5 -150s47.834 -44 90.501 -44c35.333 0 65.333 3.66699 90 11s52 17.333 82 30l37 -125c-36.667 -18 -77 -32.5 -121 -43.5s-91 -16.5 -141 -16.5
c-83.333 0 -142.166 23.667 -176.499 71s-51.5 126.333 -51.5 237v598h-159z" />
    <glyph glyph-name="u" unicode="u" horiz-adv-x="1103" 
d="M141 406l-0.00195312 618.001h164v-584c0 -53.333 3.16699 -100 9.5 -140s17 -73.333 32 -100s35.333 -46.834 61 -60.501s58.5 -20.5 98.5 -20.5c36.667 0 69.334 5.83301 98.001 17.5s54.334 27.667 77.001 48s42.5 43.833 59.5 70.5s30.833 55 41.5 85v684h164v-733
c0 -49.333 1.66699 -100.333 5 -153s9.33301 -98.667 18 -138h-113l-41 162h-10c-31.333 -53.333 -73.666 -97.833 -126.999 -133.5s-121 -53.5 -203 -53.5c-54.667 0 -102.834 6.5 -144.501 19.5s-76.5 36 -104.5 69s-49.167 77.167 -63.5 132.5s-21.5 125.333 -21.5 210z
" />
    <glyph glyph-name="v" unicode="v" horiz-adv-x="987" 
d="M18 1024h189l246 -600l57 -195h2l51 199l230 596h176l-437 -1047h-69z" />
    <glyph glyph-name="w" unicode="w" horiz-adv-x="1505" 
d="M16 1024h179l202 -596l35 -199h2l49 203l219 592h119l236 -598l51 -197h4l39 201l182 594h156l-344 -1047h-80l-268 676l-39 168h-6l-41 -170l-258 -674h-80z" />
    <glyph glyph-name="x" unicode="x" horiz-adv-x="1054" 
d="M57 0l369 524l-344 500h201l194 -283l58 -116l59 116l199 283h184l-346 -492l366 -532h-194l-217 311l-62 123l-63 -123l-221 -311h-183z" />
    <glyph glyph-name="y" unicode="y" horiz-adv-x="954" 
d="M25 1024l188 -0.000976562l246 -664l57 -196h10l45 198l199 662h166l-303 -920l-69 -194c-22.667 -62.667 -47.5 -118.667 -74.5 -168s-57.667 -88.666 -92 -117.999s-73.833 -44 -118.5 -44c-49.333 0 -89.666 7 -120.999 21l28 141c18 -6.66699 35.333 -10 52 -10
c38 0 74.667 20.167 110 60.5s64.666 109.5 87.999 207.5z" />
    <glyph glyph-name="z" unicode="z" horiz-adv-x="915" 
d="M86 0v143l473 652l86 86h-559v143h729v-143l-477 -658l-84 -80h561v-143h-729z" />
    <glyph glyph-name="braceleft" unicode="{" horiz-adv-x="708" 
d="M117 410v142.999c52 0 92.333 13.667 121 41s43 71 43 131v496c0 64 16 115.833 48 155.5s80.667 59.5 146 59.5h174v-144h-102c-36.667 0 -63.667 -9.16699 -81 -27.5s-26 -49.5 -26 -93.5v-485c0 -60 -14.333 -105.667 -43 -137s-62 -50.333 -100 -57v-13
c36.667 -5.33301 69.667 -26.166 99 -62.499s44 -83.166 44 -140.499v-483c0 -42 8.16699 -72.667 24.5 -92s44.5 -29 84.5 -29h100v-143h-174c-61.333 0 -109 18.167 -143 54.5s-51 89.166 -51 158.499v487c0 69.333 -14.333 116.833 -43 142.5s-69 38.5 -121 38.5z" />
    <glyph glyph-name="bar" unicode="|" horiz-adv-x="487" 
d="M174 -266v1700h139v-1700h-139z" />
    <glyph glyph-name="braceright" unicode="}" horiz-adv-x="708" 
d="M113 -328h102.001c36.667 0 63.667 9.33301 81 28s26 49.667 26 93v486c0 60 14 105.667 42 137s61 50.333 99 57v12c-36.667 5.33301 -69.334 26.166 -98.001 62.499s-43 83.166 -43 140.499v483c0 42 -8.33301 72.667 -25 92s-44 29 -82 29h-102v144h176
c60 0 107 -18.167 141 -54.5s51 -89.166 51 -158.499v-488c0 -69.333 14.333 -116.666 43 -141.999s69 -38 121 -38v-143c-52 0 -92.333 -13.667 -121 -41s-43 -71 -43 -131v-496c0 -64 -16 -115.833 -48 -155.5s-80.667 -59.5 -146 -59.5h-174v143z" />
    <glyph glyph-name="asciitilde" unicode="~" horiz-adv-x="1034" 
d="M63 739c58.667 45.333 112 76.8311 160 94.498s91.667 26.5 131 26.5c38 0 73.5 -5.83301 106.5 -17.5s64.5 -24.667 94.5 -39s59.333 -27.166 88 -38.499s58.667 -17 90 -17c26 0 52.667 5.33301 80 16s56.666 29.667 87.999 57l70 -125
c-52 -35.333 -98.833 -60.166 -140.5 -74.499s-79.5 -21.5 -113.5 -21.5c-36.667 0 -70.5 5.83301 -101.5 17.5s-60.5 24.667 -88.5 39s-56 27.333 -84 39s-58.333 17.5 -91 17.5c-31.333 0 -64.666 -7.16699 -99.999 -21.5s-75 -39.5 -119 -75.5z" />
    <glyph glyph-name="uni00A0" unicode="&#xa0;" horiz-adv-x="546" 
 />
    <glyph glyph-name="exclamdown" unicode="&#xa1;" horiz-adv-x="622" 
d="M158 928c0 36.667 10.5 65.667 31.5 87s49.167 32 84.5 32c36.667 0 66 -10.667 88 -32s33 -50.333 33 -87c0 -35.333 -10.833 -64 -32.5 -86s-51.167 -33 -88.5 -33c-35.333 0 -63.5 11 -84.5 33s-31.5 50.667 -31.5 86zM190 301l35 361h101l34 -361v-711h-170v711z" />
    <glyph glyph-name="cent" unicode="&#xa2;" 
d="M178 512c0 157.333 32.502 281.327 97.502 371.994s157.5 143.334 277.5 158.001v187h145v-182c48 -2.66699 90.5 -9.16699 127.5 -19.5s70.5 -23.166 100.5 -38.499l-47 -139c-27.333 13.333 -57.833 24.833 -91.5 34.5s-68.167 15.834 -103.5 18.501v-784
c44 2.66699 83.667 11.167 119 25.5s64.666 30.5 87.999 48.5l53 -125c-32.667 -23.333 -69.834 -42.166 -111.501 -56.499s-86.5 -24.166 -134.5 -29.499v-187h-145v185c-68 6.66699 -125.667 24 -173 52s-86 64.833 -116 110.5s-51.833 99.834 -65.5 162.501
s-20.5 131.667 -20.5 207zM348.002 511.994c0 -45.333 3.83105 -88.8311 11.498 -130.498s20.334 -79.834 38.001 -114.501s40.834 -64.334 69.501 -89.001s64 -41.667 106 -51v772c-150 -28.667 -225 -157.667 -225 -387z" />
    <glyph glyph-name="sterling" unicode="&#xa3;" 
d="M102 0l-0.00195312 147c44 0 81.333 8 112 24s55.834 36.5 75.501 61.5s34.334 53.667 44.001 86s14.5 64.833 14.5 97.5c0 45.333 -4.33301 86 -13 122s-20 70.333 -34 103h-199v143h136c-16.667 35.333 -30.5 74.333 -41.5 117s-16.5 92.667 -16.5 150
c0 134 38.333 235.333 115 304s181 103 313 103c83.333 0 155.833 -6.16699 217.5 -18.5s112.167 -27.833 151.5 -46.5l-53 -146c-31.333 15.333 -73.333 29.166 -126 41.499s-116.667 18.5 -192 18.5c-82 0 -145.167 -22.167 -189.5 -66.5s-66.5 -104.166 -66.5 -179.499
c0 -57.333 6.83301 -107.833 20.5 -151.5s30.167 -85.5 49.5 -125.5h330v-143h-269c10.667 -31.333 19.5 -64 26.5 -98s10.5 -71.667 10.5 -113c0 -40.667 -6.16699 -82.5 -18.5 -125.5s-30.833 -78.167 -55.5 -105.5l-79 -68v-8l127 29h524v-152h-914z" />
    <glyph glyph-name="currency" unicode="&#xa4;" 
d="M43 293l158 160.001l69 45c-42 57.333 -63 127 -63 209c0 39.333 5.83301 76.666 17.5 111.999s26.834 68.333 45.501 99l-69 43l-158 159l100 101l160 -158l43 -72c57.333 45.333 127.666 68 210.999 68c80.667 0 151 -22.667 211 -68l45 72l160 158l100 -101l-158 -159
l-71 -46c44 -58.667 65.667 -128 65 -208c0 -82 -21.667 -152.333 -65 -211l71 -43l158 -160l-100 -98l-160 157l-43 68c-58.667 -42 -129.667 -63.333 -213 -64c-84.667 0 -155 21.333 -211 64l-43 -68l-160 -157zM348 707.001c0 -61.333 19.5 -112.5 58.5 -153.5
s89.167 -61.5 150.5 -61.5s111.833 20.333 151.5 61s59.5 92 59.5 154c0 61.333 -19.833 112.833 -59.5 154.5s-90.167 62.5 -151.5 62.5s-111.5 -20.833 -150.5 -62.5s-58.5 -93.167 -58.5 -154.5z" />
    <glyph glyph-name="yen" unicode="&#xa5;" 
d="M4 1434h199l336 -627l34 -125h2l37 129l322 623h182l-416 -762h197v-123h-250v-146h250v-122h-250v-281h-170v281h-250v122h250v146h-250v123h193z" />
    <glyph glyph-name="brokenbar" unicode="&#xa6;" horiz-adv-x="487" 
d="M174 -266v688h139v-688h-139zM174 745v689h139v-689h-139z" />
    <glyph glyph-name="section" unicode="&#xa7;" horiz-adv-x="1017" 
d="M117 723c0 42 10.5039 83.167 31.5039 123.5s49.167 76.166 84.5 107.499l84 29c-35.333 22 -64.833 49.667 -88.5 83s-35.5 78 -35.5 134c0 76.667 28.167 138.834 84.5 186.501s135.166 71.5 236.499 71.5c74 0 136.5 -6.16699 187.5 -18.5
s95.167 -27.166 132.5 -44.499l-39 -138c-32.667 15.333 -71.667 28.833 -117 40.5s-92.333 17.5 -141 17.5c-61.333 0 -106.833 -11 -136.5 -33s-44.5 -51.333 -44.5 -88c0 -35.333 13.333 -63 40 -83s60.5 -37.5 101.5 -52.5s84.667 -30 131 -45s90 -34.333 131 -58
s74.833 -55 101.5 -94s40 -89.167 40 -150.5c0 -42 -10.167 -83 -30.5 -123s-48.5 -75.667 -84.5 -107l-92 -28c36.667 -22 67.667 -50.167 93 -84.5s38 -79.5 38 -135.5c0 -42 -8.16699 -79 -24.5 -111s-39.166 -59 -68.499 -81s-63.833 -38.5 -103.5 -49.5
s-81.834 -16.5 -126.501 -16.5c-76.667 0 -139.5 6.5 -188.5 19.5s-92.833 29.167 -131.5 48.5l41 133c31.333 -15.333 69.166 -28.666 113.499 -39.999s92.5 -17 144.5 -17c57.333 0 101.833 9.16699 133.5 27.5s47.5 49.5 47.5 93.5c0 35.333 -13.333 63.166 -40 83.499
s-60.5 38 -101.5 53s-84.833 30 -131.5 45s-90.334 34.5 -131.001 58.5s-74.334 55.167 -101.001 93.5s-40 88.166 -40 149.499zM281.004 727c0 -34 8.83398 -62.002 26.501 -84.002s40.5 -40.833 68.5 -56.5s60 -29 96 -40s72.667 -23.167 110 -36.5
c19.333 8 38.166 18.833 56.499 32.5s35 29 50 46s26.833 35.5 35.5 55.5s13 41 13 63c0 34 -8.83301 61.833 -26.5 83.5s-41.167 40.334 -70.5 56.001s-62.5 29.334 -99.5 41.001s-73.833 24.5 -110.5 38.5c-39.333 -18 -74 -43.333 -104 -76s-45 -73.667 -45 -123z" />
    <glyph glyph-name="dieresis" unicode="&#xa8;" horiz-adv-x="841" 
d="M123 1337c0 31.333 9.16699 56.666 27.5 75.999s42.5 29 72.5 29s54.333 -9.66699 73 -29s28 -44.666 28 -75.999c0 -28.667 -9.33301 -52.5 -28 -71.5s-43 -28.5 -73 -28.5s-54.167 9.5 -72.5 28.5s-27.5 42.833 -27.5 71.5zM516 1337
c0 31.333 9.16699 56.666 27.5 75.999s42.5 29 72.5 29c31.333 0 56.333 -9.66699 75 -29s28 -44.666 28 -75.999c0 -28.667 -9.16699 -52.5 -27.5 -71.5s-43.5 -28.5 -75.5 -28.5c-30 0 -54.167 9.5 -72.5 28.5s-27.5 42.833 -27.5 71.5z" />
    <glyph glyph-name="copyright" unicode="&#xa9;" horiz-adv-x="1650" 
d="M104 594c0 113.333 19.167 214.666 57.5 303.999s90.333 164.833 156 226.5s142.167 108.834 229.5 141.501s180 49 278 49s190.833 -16.333 278.5 -49s164.334 -79.834 230.001 -141.501s117.5 -137.167 155.5 -226.5s57 -190.666 57 -303.999
s-19 -214.666 -57 -303.999s-89.833 -164.833 -155.5 -226.5s-142.167 -108.834 -229.5 -141.501s-180.333 -49 -279 -49c-109.333 0 -208.333 16.333 -297 49s-164.334 79.834 -227.001 141.501s-111.167 137.167 -145.5 226.5s-51.5 190.666 -51.5 303.999zM248 594
c0 -94 15 -177.667 45 -251s71 -134.5 123 -183.5s113.167 -86.5 183.5 -112.5s145.5 -39 225.5 -39c80.667 0 156.167 13 226.5 39s131.5 63.5 183.5 112.5s93 110.167 123 183.5s45 157 45 251s-15 177.5 -45 250.5s-71 134.167 -123 183.5s-113.167 87 -183.5 113
s-145.833 39 -226.5 39s-156 -13 -226 -39s-131 -63.667 -183 -113s-93 -110.5 -123 -183.5s-45 -156.5 -45 -250.5zM481 594c0 124 31.166 219.835 93.499 287.502s144.5 101.5 246.5 101.5c24.667 0 47 -1.33301 67 -4s38.5 -6.33398 55.5 -11.001s33.667 -10.5 50 -17.5
s34.833 -14.5 55.5 -22.5l-54 -125c-30 15.333 -58.667 25.666 -86 30.999s-50.333 8 -69 8c-57.333 0 -104.166 -17.833 -140.499 -53.5s-54.5 -100.5 -54.5 -194.5c0 -79.333 17.833 -140.5 53.5 -183.5s88.167 -65.167 157.5 -66.5c64 0 118.667 12.333 164 37l43 -121
c-31.333 -18 -66.5 -31.667 -105.5 -41s-84.5 -14 -136.5 -14c-110.667 0 -195 34.833 -253 104.5s-87 164.5 -87 284.5z" />
    <glyph glyph-name="ordfeminine" unicode="&#xaa;" horiz-adv-x="790" 
d="M98 965c0 42 10.334 77.3311 31.001 105.998s48.334 51.834 83.001 69.501s75.667 30.667 123 39s98 12.5 152 12.5c9.33301 0 18.5 -0.333008 27.5 -1s18.5 -1 28.5 -1c1.33301 8 2 15.833 2 23.5v21.5c0 36.667 -8.16699 62.5 -24.5 77.5s-47.833 22.5 -94.5 22.5
c-54.667 0 -104.5 -5 -149.5 -15s-80.5 -22 -106.5 -36l-31 102c34 18 79 33.167 135 45.5s118.333 18.5 187 18.5c84.667 0 142.667 -17.833 174 -53.5s47 -86.834 47 -153.501c0 -52 -1 -101.833 -3 -149.5s-3 -93.5 -3 -137.5c0 -32.667 1 -64 3 -94s6.33301 -58 13 -84
h-112l-27 94h-8c-18 -23.333 -43.333 -46.166 -76 -68.499s-78.334 -33.5 -137.001 -33.5c-70.667 0 -127.334 17.333 -170.001 52s-64 82.334 -64 143.001zM242.001 974.998c0 -27.333 9.83301 -49.1689 29.5 -65.502s47.167 -24.5 82.5 -24.5
c28.667 0 53.667 3.33301 75 10s39.5 15.834 54.5 27.501s27.333 24 37 37s17.167 25.5 22.5 37.5v86c-15.333 1.33301 -29.833 2 -43.5 2h-42.5c-28.667 0 -56 -1.33301 -82 -4s-49 -8 -69 -16s-35.667 -19.167 -47 -33.5s-17 -33.166 -17 -56.499z" />
    <glyph glyph-name="guillemotleft" unicode="&#xab;" horiz-adv-x="978" 
d="M80 530l328 471l110 -88l-201 -297l-98 -84l98 -73l213 -291l-110 -90zM455 530l323 467l109 -86l-199 -295l-98 -84l98 -73l211 -289l-106 -88z" />
    <glyph glyph-name="logicalnot" unicode="&#xac;" horiz-adv-x="1034" 
d="M84 655v148h868v-393h-147v245h-721z" />
    <glyph glyph-name="uni00AD" unicode="&#xad;" horiz-adv-x="737" 
d="M119 514v152h499v-152h-499z" />
    <glyph glyph-name="registered" unicode="&#xae;" horiz-adv-x="1433" 
d="M174 924c0 87.333 14.332 164.666 42.999 231.999s68 124 118 170s107.667 80.833 173 104.5s135 35.5 209 35.5c75.333 0 146 -11.833 212 -35.5s123.667 -58.5 173 -104.5s88 -102.667 116 -170s42 -144.666 42 -231.999s-14.333 -164.833 -43 -232.5
s-68 -124.334 -118 -170.001s-107.833 -80.5 -173.5 -104.5s-135.167 -36 -208.5 -36c-76.667 0 -147.667 12 -213 36s-122.666 58.833 -171.999 104.5s-88 102.334 -116 170.001s-42 145.167 -42 232.5zM302.999 924c0 -70.667 11.0039 -132.501 33.0039 -185.501
s51.667 -96.833 89 -131.5s81.333 -60.834 132 -78.501s104 -26.5 160 -26.5c58.667 0 113.167 8.5 163.5 25.5s94 42.833 131 77.5s66 78.334 87 131.001s31.5 115.334 31.5 188.001c0 70.667 -10.833 132.334 -32.5 185.001s-51.334 96.334 -89.001 131.001
s-81.334 61 -131.001 79s-103.167 27 -160.5 27c-60 0 -115.333 -9 -166 -27s-94.334 -44.333 -131.001 -79s-65.334 -78.334 -86.001 -131.001s-31 -114.334 -31 -185.001zM506.003 658.999v531.001c22 6.66699 52.667 11.667 92 15s77 5 113 5
c57.333 0 106.5 -11.833 147.5 -35.5s61.5 -64.834 61.5 -123.501c0 -44 -14 -77.667 -42 -101s-62.667 -36.333 -104 -39l57 -28l152 -224h-125l-147 213l-99 31v-244h-106zM612.003 965h69.999c39.333 0 70 6 92 18s33 33.333 33 64c0 47.333 -39.667 71 -119 71
c-15.333 0 -29.666 -0.333008 -42.999 -1s-24.333 -3 -33 -7v-145z" />
    <glyph glyph-name="macron" unicode="&#xaf;" horiz-adv-x="851" 
d="M123 1190v127h606v-127h-606z" />
    <glyph glyph-name="degree" unicode="&#xb0;" horiz-adv-x="870" 
d="M174 1169c0 42 7.5 80.832 22.5 116.499s35.5 66.167 61.5 91.5s56.667 45.166 92 59.499s73 21.5 113 21.5c39.333 0 76.833 -6.5 112.5 -19.5s66.5 -32.167 92.5 -57.5s46.5 -55.666 61.5 -90.999s22.5 -75.666 22.5 -120.999s-7.5 -85.666 -22.5 -120.999
s-35.5 -65.5 -61.5 -90.5s-56.833 -44 -92.5 -57s-73.167 -19.5 -112.5 -19.5s-76.833 6.5 -112.5 19.5s-66.5 32 -92.5 57s-46.5 55.167 -61.5 90.5s-22.5 75.666 -22.5 120.999zM303 1169c0 -52 16 -92.499 48 -121.499s69.333 -43.5 112 -43.5
c42 0 79.167 14.667 111.5 44s48.5 69.666 48.5 120.999c0 52 -16.167 92.667 -48.5 122s-69.5 44 -111.5 44s-79.167 -14.667 -111.5 -44s-48.5 -70 -48.5 -122z" />
    <glyph glyph-name="plusminus" unicode="&#xb1;" horiz-adv-x="1034" 
d="M82 365v147h868v-147h-868zM82 862v148h360v370h148v-370h360v-148h-360v-246h-148v246h-360z" />
    <glyph glyph-name="uni00B2" unicode="&#xb2;" horiz-adv-x="806" 
d="M98 778l-0.000976562 68c31.333 26 70.666 60.833 117.999 104.5s92.833 90.667 136.5 141s80.834 102.166 111.501 155.499s46 102.666 46 147.999c0 42 -13.667 73.667 -41 95s-60.666 32 -99.999 32c-36.667 0 -72.5 -6.5 -107.5 -19.5s-65.5 -27.833 -91.5 -44.5
l-45 117c35.333 24.667 76.5 43.834 123.5 57.501s95.167 20.5 144.5 20.5c86 0 150.833 -21.167 194.5 -63.5s65.5 -101.166 65.5 -176.499c0 -42 -7.16699 -82.833 -21.5 -122.5s-33.333 -78.667 -57 -117s-52 -76.333 -85 -114s-67.833 -75.5 -104.5 -113.5l-94 -65v-4
l117 30h286v-129h-596z" />
    <glyph glyph-name="uni00B3" unicode="&#xb3;" horiz-adv-x="806" 
d="M137 803l30.999 123c23.333 -10.667 50 -19.834 80 -27.501s62.667 -11.5 98 -11.5c65.333 0 115.5 13 150.5 39s52.5 64 52.5 114c0 44 -15.667 79.667 -47 107s-82 41 -152 41h-112v47l198 237l70 56l-100 -13h-267v123h525v-67l-211 -252l-52 -37v-4l48 6
c75.333 -1.33301 134.666 -23.833 177.999 -67.5s65 -102.5 65 -176.5c0 -83.333 -30.333 -150.166 -91 -200.499s-141.667 -75.5 -243 -75.5c-49.333 0 -91.666 4 -126.999 12s-66.666 17 -93.999 27z" />
    <glyph glyph-name="acute" unicode="&#xb4;" horiz-adv-x="548" 
d="M123 1169l121 306h182v-43l-207 -263h-96z" />
    <glyph glyph-name="paragraph" unicode="&#xb6;" horiz-adv-x="1011" 
d="M76 1036c0 50.667 7.83398 99.832 23.501 147.499s38.5 90 68.5 127s66.833 66.833 110.5 89.5s92.834 34 147.501 34h92v-1700h-139v901c-44 0 -84.333 11.167 -121 33.5s-68.334 52.333 -95.001 90s-47.834 80.834 -63.501 129.501s-23.5 98 -23.5 148z
M698.001 -266.002v1700h140v-1700h-140z" />
    <glyph glyph-name="periodcentered" unicode="&#xb7;" horiz-adv-x="546" 
d="M155 606c0 36.667 10.667 65.667 32 87s49.666 32 84.999 32c36.667 0 66 -10.5 88 -31.5s33 -50.167 33 -87.5c0 -35.333 -11 -64 -33 -86s-51.333 -33 -88 -33c-35.333 0 -63.666 11 -84.999 33s-32 50.667 -32 86z" />
    <glyph glyph-name="cedilla" unicode="&#xb8;" horiz-adv-x="587" 
d="M123 -418l18.001 80.001c8 -1.33301 15.5 -2 22.5 -2h20.5c30 0 53.667 2.66699 71 8s30.333 11.833 39 19.5s14 16.334 16 26.001s3 18.5 3 26.5c0 38 -58.667 63.333 -176 76l99 184h116l-49 -88c57.333 -10.667 98.666 -28.334 123.999 -53.001
s38 -58.334 38 -101.001c0 -53.333 -21.833 -97.333 -65.5 -132s-105.167 -52 -184.5 -52c-15.333 0 -30.5 0.666992 -45.5 2s-30.5 3.33301 -46.5 6z" />
    <glyph glyph-name="uni00B9" unicode="&#xb9;" horiz-adv-x="806" 
d="M109 1444l315 209h84v-750h194v-125h-555v125h218v520l14 74l-55 -57l-160 -97z" />
    <glyph glyph-name="ordmasculine" unicode="&#xba;" horiz-adv-x="815" 
d="M90 1110c0 61.333 8.16699 113.83 24.5 157.497s38.5 79.834 66.5 108.501s61.5 49.5 100.5 62.5s81.167 19.5 126.5 19.5s87.333 -6.16699 126 -18.5s72 -32.166 100 -59.499s50.167 -63.166 66.5 -107.499s24.5 -98.5 24.5 -162.5s-8.16699 -118.167 -24.5 -162.5
s-38.5 -80.166 -66.5 -107.499s-61.5 -47.166 -100.5 -59.499s-80.833 -18.5 -125.5 -18.5c-45.333 0 -87.5 6.16699 -126.5 18.5s-72.5 32.166 -100.5 59.499s-50.167 63.166 -66.5 107.499s-24.5 98.5 -24.5 162.5zM242 1110c0 -82 14.668 -140.665 44.001 -175.998
s70 -53 122 -53c26 0 49.167 3.66699 69.5 11s37.666 19.5 51.999 36.5s25.166 40.167 32.499 69.5s11 66.666 11 111.999s-3.66699 82.666 -11 111.999s-18.166 52.5 -32.499 69.5s-31.833 29.167 -52.5 36.5s-43.667 11 -69 11c-52 0 -92.667 -16 -122 -48
s-44 -92.333 -44 -181z" />
    <glyph glyph-name="guillemotright" unicode="&#xbb;" horiz-adv-x="978" 
d="M80 909l106 88l340 -448l-327 -467l-107 86l197 295l100 84l-100 74zM449 911l108 90l342 -452l-328 -471l-110 88l201 297l98 84l-98 74z" />
    <glyph glyph-name="onequarter" unicode="&#xbc;" horiz-adv-x="1714" 
d="M109 1239l315 209h86v-875h-143v646l14 73l-57 -57l-160 -96zM289 49l997 1411l106 -71l-997 -1414zM907 197v76l463 618h92v-573h170v-121h-170v-197h-137v197h-418zM1061 307l102 11h162v262l12 100h-4l-45 -94l-160 -215z" />
    <glyph glyph-name="onehalf" unicode="&#xbd;" horiz-adv-x="1740" 
d="M109 1239l315 209h86v-875h-143v646l14 73l-57 -57l-160 -96zM289 49l997 1411l106 -71l-997 -1414zM1063 0l-0.000976562 68c31.333 26 70.666 60.833 117.999 104.5s92.833 90.667 136.5 141s80.834 102.166 111.501 155.499s46 102.666 46 147.999
c0 42 -13.667 73.667 -41 95s-60.666 32 -99.999 32c-36.667 0 -72.5 -6.5 -107.5 -19.5s-65.5 -27.833 -91.5 -44.5l-45 117c35.333 24.667 76.5 43.834 123.5 57.501s95.167 20.5 144.5 20.5c86 0 150.833 -21.167 194.5 -63.5s65.5 -101.166 65.5 -176.499
c0 -42 -7.16699 -82.833 -21.5 -122.5s-33.333 -78.667 -57 -117s-52 -76.333 -85 -114s-67.833 -75.5 -104.5 -113.5l-94 -65v-4l117 30h286v-129h-596z" />
    <glyph glyph-name="threequarters" unicode="&#xbe;" horiz-adv-x="1794" 
d="M155 598l30.999 123c23.333 -10.667 50 -19.834 80 -27.501s62.667 -11.5 98 -11.5c65.333 0 115.5 13 150.5 39s52.5 64 52.5 114c0 44 -15.667 79.667 -47 107s-82 41 -152 41h-112v47l198 237l70 56l-100 -13h-267v123h525v-67l-211 -252l-52 -37v-4l48 6
c75.333 -1.33301 134.666 -23.833 177.999 -67.5s65 -102.5 65 -176.5c0 -83.333 -30.333 -150.166 -91 -200.499s-141.667 -75.5 -243 -75.5c-49.333 0 -91.666 4 -126.999 12s-66.666 17 -93.999 27zM368.999 49l997 1411l106 -71l-997 -1414zM986.999 197v76l463 618h92
v-573h170v-121h-170v-197h-137v197h-418zM1141 307l102 11h162v262l12 100h-4l-45 -94l-160 -215z" />
    <glyph glyph-name="questiondown" unicode="&#xbf;" horiz-adv-x="892" 
d="M76 -100c0 61.333 9.16504 114.83 27.498 160.497s41.5 87.334 69.5 125.001s58 72.834 90 105.501s62 67.167 90 103.5s51.333 75.5 70 117.5s28 92 28 150h135c1.33301 -6.66699 2 -14.167 2 -22.5v-23.5c0 -57.333 -8.5 -107.833 -25.5 -151.5
s-38.167 -83.5 -63.5 -119.5s-52.666 -69.667 -81.999 -101s-56.666 -63.166 -81.999 -95.499s-46.5 -66.5 -63.5 -102.5s-25.5 -77.333 -25.5 -124c0 -62.667 18 -113.834 54 -153.501s96.333 -59.5 181 -59.5c49.333 0 99.333 8.5 150 25.5s94.334 37.167 131.001 60.5
l55 -127c-52 -31.333 -106.667 -56.166 -164 -74.499s-128.333 -27.5 -213 -27.5c-60 0 -112.833 8.5 -158.5 25.5s-83.834 40.5 -114.501 70.5s-53.5 65.167 -68.5 105.5s-22.5 84.5 -22.5 132.5zM390.998 929.997c0 36.667 10.667 65.667 32 87s49.666 32 84.999 32
c36.667 0 66 -10.667 88 -32s33 -50.333 33 -87c0 -35.333 -11 -64 -33 -86s-51.333 -33 -88 -33c-35.333 0 -63.666 11 -84.999 33s-32 50.667 -32 86z" />
    <glyph glyph-name="Agrave" unicode="&#xc0;" horiz-adv-x="1198" 
d="M16 0l543 1456h78l545 -1456h-178l-148 397h-528l-144 -397h-168zM277 1739v43h233l242 -242h-152zM383 545h422l-160 436l-51 217h-2l-51 -221z" />
    <glyph glyph-name="Aacute" unicode="&#xc1;" horiz-adv-x="1198" 
d="M16 0l543 1456h78l545 -1456h-178l-148 397h-528l-144 -397h-168zM383 545h422l-160 436l-51 217h-2l-51 -221zM436 1540l242 242h233v-43l-334 -199h-141z" />
    <glyph glyph-name="Acircumflex" unicode="&#xc2;" horiz-adv-x="1198" 
d="M16 0l543 1456h78l545 -1456h-178l-148 397h-528l-144 -397h-168zM270 1530v45l272 207h123l260 -209v-43h-166l-123 100l-34 72l-39 -70l-131 -102h-162zM383 545h422l-160 436l-51 217h-2l-51 -221z" />
    <glyph glyph-name="Atilde" unicode="&#xc3;" horiz-adv-x="1198" 
d="M16 0l543 1456h78l545 -1456h-178l-148 397h-528l-144 -397h-168zM277 1608c42 44 81.1699 73.667 117.503 89s70.833 23 103.5 23c26 0 51.333 -3.33301 76 -10s48.167 -14.5 70.5 -23.5s44.5 -16.833 66.5 -23.5s43.333 -10 64 -10c35.333 0 69.333 14.333 102 43
l51 -88c-36.667 -34 -71.334 -57.5 -104.001 -70.5s-63.334 -19.5 -92.001 -19.5c-26 0 -50.667 3.33301 -74 10s-46.333 14.5 -69 23.5s-44.834 16.833 -66.501 23.5s-43.5 10 -65.5 10s-43.5 -4.33301 -64.5 -13s-43.167 -24.667 -66.5 -48zM383.003 545h422l-160 436
l-51 217h-2l-51 -221z" />
    <glyph glyph-name="Adieresis" unicode="&#xc4;" horiz-adv-x="1198" 
d="M16 0l543 1456h78l545 -1456h-178l-148 397h-528l-144 -397h-168zM295 1626c0 28.667 10.167 51.834 30.5 69.501s46.833 26.5 79.5 26.5c31.333 0 57 -8.83301 77 -26.5s30 -40.834 30 -69.501c0 -27.333 -9.83301 -49.833 -29.5 -67.5s-45.5 -26.5 -77.5 -26.5
c-32.667 0 -59.167 8.83301 -79.5 26.5s-30.5 40.167 -30.5 67.5zM383 545h422l-160 436l-51 217h-2l-51 -221zM688 1626c0 28.667 9.83301 51.834 29.5 69.501s45.5 26.5 77.5 26.5c32.667 0 59.167 -8.83301 79.5 -26.5s30.5 -40.834 30.5 -69.501
c0 -27.333 -10.167 -49.833 -30.5 -67.5s-46.833 -26.5 -79.5 -26.5c-31.333 0 -57 8.83301 -77 26.5s-30 40.167 -30 67.5z" />
    <glyph glyph-name="Aring" unicode="&#xc5;" horiz-adv-x="1198" 
d="M16 0l524.999 1407c-52 8 -91 26.667 -117 56s-39 66 -39 110c0 50.667 17 92.334 51 125.001s88.667 49 164 49c68 0 121.167 -14.667 159.5 -44s57.5 -72.666 57.5 -129.999c0 -44 -13.667 -80.667 -41 -110s-67.666 -48 -120.999 -56l527 -1407h-178l-148 397h-528
l-144 -397h-168zM382.999 544.998h422l-160 436l-51 217h-2l-51 -221zM509.999 1573c0 -23.333 7.16797 -42.833 21.501 -58.5s37.166 -23.5 68.499 -23.5c30 0 52.833 7.5 68.5 22.5s23.5 34.833 23.5 59.5c0 26 -7.5 46.833 -22.5 62.5s-38.167 23.5 -69.5 23.5
c-30 0 -52.5 -7.83301 -67.5 -23.5s-22.5 -36.5 -22.5 -62.5z" />
    <glyph glyph-name="AE" unicode="&#xc6;" horiz-adv-x="1732" 
d="M-45 0l850 1434h784v-152h-610v-469h559v-151h-559v-510h620v-152h-790v406h-438l-230 -406h-186zM459 549h350v680h-8l-70 -211z" />
    <glyph glyph-name="Ccedilla" unicode="&#xc7;" horiz-adv-x="1169" 
d="M115 717c0 134 17.998 247.672 53.998 341.005s83.667 169.666 143 228.999s126 102.666 200 129.999s149 41 225 41c82 0 149 -4.33301 201 -13s96.333 -20.667 133 -36l-41 -149c-65.333 31.333 -158.666 47 -279.999 47c-56 0 -111.333 -10.333 -166 -31
s-103.5 -54.167 -146.5 -100.5s-77.5 -107 -103.5 -182s-39 -167.167 -39 -276.5c0 -98 12.333 -184 37 -258s58.5 -135.5 101.5 -184.5s93.5 -85.833 151.5 -110.5s121 -37 189 -37c61.333 0 115 6.16699 161 18.5s84.667 28.166 116 47.499l41 -134
c-35.333 -27.333 -79 -47 -131 -59s-108.667 -19.667 -170 -23l-35 -65c57.333 -10.667 98.666 -28.334 123.999 -53.001s38 -58.334 38 -101.001c0 -53.333 -22 -97.333 -66 -132s-105.333 -52 -184 -52c-15.333 0 -30.5 0.666992 -45.5 2s-30.833 3.33301 -47.5 6l19 80
c8 -1.33301 15.5 -2 22.5 -2h20.5c30 0 53.5 2.66699 70.5 8s30 11.833 39 19.5s14.5 16.334 16.5 26.001s3 18.5 3 26.5c0 38 -58.667 63.333 -176 76l86 164c-79.333 5.33301 -153.166 24 -221.499 56s-127.666 78 -177.999 138s-89.833 135.167 -118.5 225.5
s-43 196.166 -43 317.499z" />
    <glyph glyph-name="Egrave" unicode="&#xc8;" horiz-adv-x="1097" 
d="M174 0v1434h780v-152h-610v-469h559v-151h-559v-510h621v-152h-791zM193 1739v43h233l242 -242h-152z" />
    <glyph glyph-name="Eacute" unicode="&#xc9;" horiz-adv-x="1097" 
d="M174 0v1434h780v-152h-610v-469h559v-151h-559v-510h621v-152h-791zM434 1540l242 242h233v-43l-334 -199h-141z" />
    <glyph glyph-name="Ecircumflex" unicode="&#xca;" horiz-adv-x="1097" 
d="M174 0v1434h780v-152h-610v-469h559v-151h-559v-510h621v-152h-791zM223 1530v45l272 207h123l260 -209v-43h-166l-123 100l-34 72l-39 -70l-131 -102h-162z" />
    <glyph glyph-name="Edieresis" unicode="&#xcb;" horiz-adv-x="1097" 
d="M174 0v1434h780v-152h-610v-469h559v-151h-559v-510h621v-152h-791zM246 1626c0 28.667 10.167 51.834 30.5 69.501s46.833 26.5 79.5 26.5c31.333 0 57 -8.83301 77 -26.5s30 -40.834 30 -69.501c0 -27.333 -9.83301 -49.833 -29.5 -67.5s-45.5 -26.5 -77.5 -26.5
c-32.667 0 -59.167 8.83301 -79.5 26.5s-30.5 40.167 -30.5 67.5zM639 1626c0 28.667 9.83301 51.834 29.5 69.501s45.5 26.5 77.5 26.5c32.667 0 59.167 -8.83301 79.5 -26.5s30.5 -40.834 30.5 -69.501c0 -27.333 -10.167 -49.833 -30.5 -67.5s-46.833 -26.5 -79.5 -26.5
c-31.333 0 -57 8.83301 -77 26.5s-30 40.167 -30 67.5z" />
    <glyph glyph-name="Igrave" unicode="&#xcc;" horiz-adv-x="595" 
d="M2 1739v43h233l242 -242h-152zM213 0v1434h170v-1434h-170z" />
    <glyph glyph-name="Iacute" unicode="&#xcd;" horiz-adv-x="595" 
d="M127 1540l242 242h233v-43l-334 -199h-141zM213 0v1434h170v-1434h-170z" />
    <glyph glyph-name="Icircumflex" unicode="&#xce;" horiz-adv-x="595" 
d="M-31 1530v45l272 207h123l260 -209v-43h-166l-123 100l-34 72l-39 -70l-131 -102h-162zM213 0v1434h170v-1434h-170z" />
    <glyph glyph-name="Idieresis" unicode="&#xcf;" horiz-adv-x="595" 
d="M-4 1626c0 28.667 10.167 51.834 30.5 69.501s46.833 26.5 79.5 26.5c31.333 0 57 -8.83301 77 -26.5s30 -40.834 30 -69.501c0 -27.333 -9.83301 -49.833 -29.5 -67.5s-45.5 -26.5 -77.5 -26.5c-32.667 0 -59.167 8.83301 -79.5 26.5s-30.5 40.167 -30.5 67.5zM213 0
v1434h170v-1434h-170zM389 1626c0 28.667 9.83301 51.834 29.5 69.501s45.5 26.5 77.5 26.5c32.667 0 59.167 -8.83301 79.5 -26.5s30.5 -40.834 30.5 -69.501c0 -27.333 -10.167 -49.833 -30.5 -67.5s-46.833 -26.5 -79.5 -26.5c-31.333 0 -57 8.83301 -77 26.5
s-30 40.167 -30 67.5z" />
    <glyph glyph-name="Eth" unicode="&#xd0;" horiz-adv-x="1347" 
d="M-2 680l-0.000976562 123.002h184v631c26 4 55 7 87 9s65.5 3.33301 100.5 4l102.5 2c33.333 0.666992 64.333 1 93 1c114.667 0 214 -17.833 298 -53.5s153.333 -85.167 208 -148.5s95.334 -139.333 122.001 -228s40 -186.334 40 -293.001
c0 -96.667 -12.667 -189.834 -38 -279.501s-65.333 -169 -120 -238s-125.667 -124.167 -213 -165.5s-193 -62 -317 -62c-22 0 -50.333 0.333008 -85 1s-70.5 2 -107.5 4s-71.167 3.66699 -102.5 5s-54 3.33301 -68 6v682h-184zM351.999 141.002
c6.66699 -1.33301 19.667 -2.33887 39 -3.00586l59.5 -2l59.5 -2c19.333 -0.666992 32.333 -1 39 -1c95.333 0 175.5 16.333 240.5 49s117 76.667 156 132s66.667 118.833 83 190.5s24.5 145.834 24.5 222.501c0 66.667 -7.5 133.834 -22.5 201.501s-41 128.834 -78 183.501
s-86.667 99.334 -149 134.001s-140.5 52 -234.5 52h-58.5c-21 0 -41.667 -0.666992 -62 -2s-39 -2.66602 -56 -3.99902s-30.5 -2.66602 -40.5 -3.99902v-485h301v-123h-301v-539z" />
    <glyph glyph-name="Ntilde" unicode="&#xd1;" horiz-adv-x="1378" 
d="M174 0v1456h90l686 -956l107 -197h10l-23 197v934h160v-1457h-90l-682 961l-110 207h-9l21 -207v-938h-160zM367 1608c42 44 81.1699 73.667 117.503 89s70.833 23 103.5 23c26 0 51.333 -3.33301 76 -10s48.167 -14.5 70.5 -23.5s44.5 -16.833 66.5 -23.5
s43.333 -10 64 -10c35.333 0 69.333 14.333 102 43l51 -88c-36.667 -34 -71.334 -57.5 -104.001 -70.5s-63.334 -19.5 -92.001 -19.5c-26 0 -50.667 3.33301 -74 10s-46.333 14.5 -69 23.5s-44.834 16.833 -66.501 23.5s-43.5 10 -65.5 10s-43.5 -4.33301 -64.5 -13
s-43.167 -24.667 -66.5 -48z" />
    <glyph glyph-name="Ograve" unicode="&#xd2;" horiz-adv-x="1400" 
d="M115 717c0 238.667 50.501 421.832 151.501 549.499s244.833 191.5 431.5 191.5c101.333 0 188.833 -17.667 262.5 -53s134.834 -85.5 183.501 -150.5s84.5 -142.833 107.5 -233.5s34.5 -192 34.5 -304c0 -238.667 -50.833 -422 -152.5 -550s-246.834 -192 -435.501 -192
c-100 0 -186.333 17.833 -259 53.5s-133.334 85.834 -182.001 150.501s-84.5 142.5 -107.5 233.5s-34.5 192.5 -34.5 304.5zM295.001 716.998c0 -79.333 7.83301 -154.501 23.5 -225.501s39.834 -133.5 72.501 -187.5s74.667 -97 126 -129s111.666 -48 180.999 -48
c126.667 0 226.334 48.167 299.001 144.5s109 244.833 109 445.5c0 78 -7.83301 152.833 -23.5 224.5s-40.334 134.334 -74.001 188.001s-76 96.667 -127 129s-112.167 48.5 -183.5 48.5c-125.333 0 -223.833 -48.167 -295.5 -144.5s-107.5 -244.833 -107.5 -445.5z
M365.001 1739v43h233l242 -242h-152z" />
    <glyph glyph-name="Oacute" unicode="&#xd3;" horiz-adv-x="1400" 
d="M115 717c0 238.667 50.501 421.832 151.501 549.499s244.833 191.5 431.5 191.5c101.333 0 188.833 -17.667 262.5 -53s134.834 -85.5 183.501 -150.5s84.5 -142.833 107.5 -233.5s34.5 -192 34.5 -304c0 -238.667 -50.833 -422 -152.5 -550s-246.834 -192 -435.501 -192
c-100 0 -186.333 17.833 -259 53.5s-133.334 85.834 -182.001 150.501s-84.5 142.5 -107.5 233.5s-34.5 192.5 -34.5 304.5zM295.001 716.998c0 -79.333 7.83301 -154.501 23.5 -225.501s39.834 -133.5 72.501 -187.5s74.667 -97 126 -129s111.666 -48 180.999 -48
c126.667 0 226.334 48.167 299.001 144.5s109 244.833 109 445.5c0 78 -7.83301 152.833 -23.5 224.5s-40.334 134.334 -74.001 188.001s-76 96.667 -127 129s-112.167 48.5 -183.5 48.5c-125.333 0 -223.833 -48.167 -295.5 -144.5s-107.5 -244.833 -107.5 -445.5z
M608.001 1540l242 242h233v-43l-334 -199h-141z" />
    <glyph glyph-name="Ocircumflex" unicode="&#xd4;" horiz-adv-x="1400" 
d="M115 717c0 238.667 50.501 421.832 151.501 549.499s244.833 191.5 431.5 191.5c101.333 0 188.833 -17.667 262.5 -53s134.834 -85.5 183.501 -150.5s84.5 -142.833 107.5 -233.5s34.5 -192 34.5 -304c0 -238.667 -50.833 -422 -152.5 -550s-246.834 -192 -435.501 -192
c-100 0 -186.333 17.833 -259 53.5s-133.334 85.834 -182.001 150.501s-84.5 142.5 -107.5 233.5s-34.5 192.5 -34.5 304.5zM295.001 716.998c0 -79.333 7.83301 -154.501 23.5 -225.501s39.834 -133.5 72.501 -187.5s74.667 -97 126 -129s111.666 -48 180.999 -48
c126.667 0 226.334 48.167 299.001 144.5s109 244.833 109 445.5c0 78 -7.83301 152.833 -23.5 224.5s-40.334 134.334 -74.001 188.001s-76 96.667 -127 129s-112.167 48.5 -183.5 48.5c-125.333 0 -223.833 -48.167 -295.5 -144.5s-107.5 -244.833 -107.5 -445.5z
M367.001 1530v45l272 207h123l260 -209v-43h-166l-123 100l-34 72l-39 -70l-131 -102h-162z" />
    <glyph glyph-name="Otilde" unicode="&#xd5;" horiz-adv-x="1400" 
d="M115 717c0 238.667 50.501 421.832 151.501 549.499s244.833 191.5 431.5 191.5c101.333 0 188.833 -17.667 262.5 -53s134.834 -85.5 183.501 -150.5s84.5 -142.833 107.5 -233.5s34.5 -192 34.5 -304c0 -238.667 -50.833 -422 -152.5 -550s-246.834 -192 -435.501 -192
c-100 0 -186.333 17.833 -259 53.5s-133.334 85.834 -182.001 150.501s-84.5 142.5 -107.5 233.5s-34.5 192.5 -34.5 304.5zM295.001 716.998c0 -79.333 7.83301 -154.501 23.5 -225.501s39.834 -133.5 72.501 -187.5s74.667 -97 126 -129s111.666 -48 180.999 -48
c126.667 0 226.334 48.167 299.001 144.5s109 244.833 109 445.5c0 78 -7.83301 152.833 -23.5 224.5s-40.334 134.334 -74.001 188.001s-76 96.667 -127 129s-112.167 48.5 -183.5 48.5c-125.333 0 -223.833 -48.167 -295.5 -144.5s-107.5 -244.833 -107.5 -445.5z
M373.001 1608c42 44 81.1699 73.667 117.503 89s70.833 23 103.5 23c26 0 51.333 -3.33301 76 -10s48.167 -14.5 70.5 -23.5s44.5 -16.833 66.5 -23.5s43.333 -10 64 -10c35.333 0 69.333 14.333 102 43l51 -88c-36.667 -34 -71.334 -57.5 -104.001 -70.5
s-63.334 -19.5 -92.001 -19.5c-26 0 -50.667 3.33301 -74 10s-46.333 14.5 -69 23.5s-44.834 16.833 -66.501 23.5s-43.5 10 -65.5 10s-43.5 -4.33301 -64.5 -13s-43.167 -24.667 -66.5 -48z" />
    <glyph glyph-name="Odieresis" unicode="&#xd6;" horiz-adv-x="1400" 
d="M115 717c0 238.667 50.501 421.832 151.501 549.499s244.833 191.5 431.5 191.5c101.333 0 188.833 -17.667 262.5 -53s134.834 -85.5 183.501 -150.5s84.5 -142.833 107.5 -233.5s34.5 -192 34.5 -304c0 -238.667 -50.833 -422 -152.5 -550s-246.834 -192 -435.501 -192
c-100 0 -186.333 17.833 -259 53.5s-133.334 85.834 -182.001 150.501s-84.5 142.5 -107.5 233.5s-34.5 192.5 -34.5 304.5zM295.001 716.998c0 -79.333 7.83301 -154.501 23.5 -225.501s39.834 -133.5 72.501 -187.5s74.667 -97 126 -129s111.666 -48 180.999 -48
c126.667 0 226.334 48.167 299.001 144.5s109 244.833 109 445.5c0 78 -7.83301 152.833 -23.5 224.5s-40.334 134.334 -74.001 188.001s-76 96.667 -127 129s-112.167 48.5 -183.5 48.5c-125.333 0 -223.833 -48.167 -295.5 -144.5s-107.5 -244.833 -107.5 -445.5z
M389.001 1626c0 28.667 10.167 51.834 30.5 69.501s46.833 26.5 79.5 26.5c31.333 0 57 -8.83301 77 -26.5s30 -40.834 30 -69.501c0 -27.333 -9.83301 -49.833 -29.5 -67.5s-45.5 -26.5 -77.5 -26.5c-32.667 0 -59.167 8.83301 -79.5 26.5s-30.5 40.167 -30.5 67.5z
M782.001 1626c0 28.667 9.83301 51.834 29.5 69.501s45.5 26.5 77.5 26.5c32.667 0 59.167 -8.83301 79.5 -26.5s30.5 -40.834 30.5 -69.501c0 -27.333 -10.167 -49.833 -30.5 -67.5s-46.833 -26.5 -79.5 -26.5c-31.333 0 -57 8.83301 -77 26.5s-30 40.167 -30 67.5z" />
    <glyph glyph-name="multiply" unicode="&#xd7;" horiz-adv-x="1034" 
d="M152 430l262 264l-258 256l104 109l258 -260l260 260l105 -109l-258 -258l258 -260l-105 -106l-260 262l-260 -262z" />
    <glyph glyph-name="Oslash" unicode="&#xd8;" horiz-adv-x="1400" 
d="M115 717c0 238.667 50.502 421.833 151.502 549.5s244.833 191.5 431.5 191.5c78 0 147 -10.167 207 -30.5s113.333 -50.5 160 -90.5l86 123l106 -71l-104 -148c45.333 -65.333 78.833 -142 100.5 -230s32.5 -186 32.5 -294c0 -238.667 -50.833 -422 -152.5 -550
s-246.834 -192 -435.501 -192c-146 0 -265.333 38.333 -358 115l-80 -115l-106 74l96 137c-46.667 65.333 -80.834 142.5 -102.501 231.5s-32.5 188.833 -32.5 299.5zM295.002 716.999c0 -69.333 5.83008 -134.833 17.4971 -196.5s29.834 -118.5 54.501 -170.5l594 842
c-31.333 35.333 -68.666 63.333 -111.999 84s-93.666 31 -150.999 31c-125.333 0 -223.833 -48.167 -295.5 -144.5s-107.5 -244.833 -107.5 -445.5zM441.999 232.999c31.333 -34 68.166 -60.166 110.499 -78.499s90.833 -27.5 145.5 -27.5
c126.667 0 226.334 48.167 299.001 144.5s109 244.833 109 445.5c0 65.333 -5.83301 128.666 -17.5 189.999s-29.167 117.333 -52.5 168z" />
    <glyph glyph-name="Ugrave" unicode="&#xd9;" horiz-adv-x="1335" 
d="M174 444v990.004h170v-910c0 -72.667 7.16699 -133.834 21.5 -183.501s35.833 -89.834 64.5 -120.501s64.5 -52.834 107.5 -66.501s93.167 -20.5 150.5 -20.5c110.667 0 189.834 30.333 237.501 91s71.5 160.667 71.5 300v910h164v-957
c0 -86 -11.167 -160.333 -33.5 -223s-54.333 -114.167 -96 -154.5s-91.834 -70 -150.501 -89s-123.667 -28.5 -195 -28.5c-169.333 0 -297 38.167 -383 114.5s-129 192.166 -129 347.499zM359 1739v43h233l242 -242h-152z" />
    <glyph glyph-name="Uacute" unicode="&#xda;" horiz-adv-x="1335" 
d="M174 444v990.004h170v-910c0 -72.667 7.16699 -133.834 21.5 -183.501s35.833 -89.834 64.5 -120.501s64.5 -52.834 107.5 -66.501s93.167 -20.5 150.5 -20.5c110.667 0 189.834 30.333 237.501 91s71.5 160.667 71.5 300v910h164v-957
c0 -86 -11.167 -160.333 -33.5 -223s-54.333 -114.167 -96 -154.5s-91.834 -70 -150.501 -89s-123.667 -28.5 -195 -28.5c-169.333 0 -297 38.167 -383 114.5s-129 192.166 -129 347.499zM557 1540l242 242h233v-43l-334 -199h-141z" />
    <glyph glyph-name="Ucircumflex" unicode="&#xdb;" horiz-adv-x="1335" 
d="M174 444v990.004h170v-910c0 -72.667 7.16699 -133.834 21.5 -183.501s35.833 -89.834 64.5 -120.501s64.5 -52.834 107.5 -66.501s93.167 -20.5 150.5 -20.5c110.667 0 189.834 30.333 237.501 91s71.5 160.667 71.5 300v910h164v-957
c0 -86 -11.167 -160.333 -33.5 -223s-54.333 -114.167 -96 -154.5s-91.834 -70 -150.501 -89s-123.667 -28.5 -195 -28.5c-169.333 0 -297 38.167 -383 114.5s-129 192.166 -129 347.499zM344 1530v45l272 207h123l260 -209v-43h-166l-123 100l-34 72l-39 -70l-131 -102
h-162z" />
    <glyph glyph-name="Udieresis" unicode="&#xdc;" horiz-adv-x="1335" 
d="M174 444v990.004h170v-910c0 -72.667 7.16699 -133.834 21.5 -183.501s35.833 -89.834 64.5 -120.501s64.5 -52.834 107.5 -66.501s93.167 -20.5 150.5 -20.5c110.667 0 189.834 30.333 237.501 91s71.5 160.667 71.5 300v910h164v-957
c0 -86 -11.167 -160.333 -33.5 -223s-54.333 -114.167 -96 -154.5s-91.834 -70 -150.501 -89s-123.667 -28.5 -195 -28.5c-169.333 0 -297 38.167 -383 114.5s-129 192.166 -129 347.499zM365 1626c0 28.667 10.167 51.834 30.5 69.501s46.833 26.5 79.5 26.5
c31.333 0 57 -8.83301 77 -26.5s30 -40.834 30 -69.501c0 -27.333 -9.83301 -49.833 -29.5 -67.5s-45.5 -26.5 -77.5 -26.5c-32.667 0 -59.167 8.83301 -79.5 26.5s-30.5 40.167 -30.5 67.5zM758 1626c0 28.667 9.83301 51.834 29.5 69.501s45.5 26.5 77.5 26.5
c32.667 0 59.167 -8.83301 79.5 -26.5s30.5 -40.834 30.5 -69.501c0 -27.333 -10.167 -49.833 -30.5 -67.5s-46.833 -26.5 -79.5 -26.5c-31.333 0 -57 8.83301 -77 26.5s-30 40.167 -30 67.5z" />
    <glyph glyph-name="Yacute" unicode="&#xdd;" horiz-adv-x="1142" 
d="M16 1434h199l336 -627l35 -125h2l37 129l321 623h182l-469 -863v-571h-170v569zM485 1540l242 242h233v-43l-334 -199h-141z" />
    <glyph glyph-name="Thorn" unicode="&#xde;" horiz-adv-x="1144" 
d="M174 0v1434h170v-154c57.333 4 116 6 176 6c62.667 0 126.5 -6.16699 191.5 -18.5s124.167 -34.833 177.5 -67.5s96.666 -77.667 129.999 -135s50 -130.333 50 -219c0 -87.333 -15.667 -161 -47 -221s-73 -108.833 -125 -146.5s-111.5 -65 -178.5 -82
s-135.833 -25.5 -206.5 -25.5h-33.5c-15.667 0 -32.167 0.333008 -49.5 1s-34.166 1.66699 -50.499 3s-27.833 2.66602 -34.5 3.99902v-379h-170zM344 532.001c6.66699 -2.66699 17.498 -4.33301 32.498 -5s30.833 -1.66699 47.5 -3s32.5 -2 47.5 -2h32.5
c46.667 0 92.834 4.5 138.501 13.5s86.834 25.5 123.501 49.5s66.334 57.167 89.001 99.5s34 96.166 34 161.499c0 56 -10.667 102.667 -32 140s-49.333 67.333 -84 90s-73.834 38.834 -117.501 48.501s-87.5 14.5 -131.5 14.5c-35.333 0 -69.333 -0.666992 -102 -2
s-58.667 -5 -78 -11v-594z" />
    <glyph glyph-name="germandbls" unicode="&#xdf;" horiz-adv-x="1212" 
d="M45 881l-0.000976562 142.999h160v47c0 132.667 32.333 228.334 97 287.001s154.334 88 269.001 88c56 0 107.333 -7.16699 154 -21.5s86.667 -34.833 120 -61.5s59.166 -58.167 77.499 -94.5s27.5 -76.833 27.5 -121.5c0 -52 -13 -93.667 -39 -125
s-54.333 -59.333 -85 -84s-59 -48.667 -85 -72s-39 -52 -39 -86c0 -30 10.333 -53.833 31 -71.5s46.667 -33.334 78 -47.001l100.5 -42c35.667 -14.333 69.167 -33.166 100.5 -56.499s57.166 -53.666 77.499 -90.999s30.5 -86 30.5 -146
c0 -44 -8.16699 -86.833 -24.5 -128.5s-39.833 -78.834 -70.5 -111.501s-69.167 -59.334 -115.5 -80.001s-98.833 -31 -157.5 -31c-31.333 0 -59 1.16699 -83 3.5s-46 5.83301 -66 10.5s-38.833 10.334 -56.5 17.001s-35.167 15.667 -52.5 27l47 133
c16.667 -8 31 -15.5 43 -22.5s25.167 -12.5 39.5 -16.5s30.333 -7 48 -9s39.5 -3 65.5 -3c28.667 0 56.334 5 83.001 15s50.334 24 71.001 42s36.667 39.5 48 64.5s17 52.5 17 82.5c0 40.667 -10.167 73.167 -30.5 97.5s-46.166 44.666 -77.499 60.999s-64.833 31 -100.5 44
s-69.167 29.333 -100.5 49s-57.166 44.834 -77.499 75.501s-30.5 72 -30.5 124c0 53.333 12.833 96 38.5 128s54 60.667 85 86s59.333 49.666 85 72.999s38.5 52.666 38.5 87.999c0 23.333 -6.33301 44.833 -19 64.5s-29.334 36.334 -50.001 50.001
s-43.334 24.334 -68.001 32.001s-48.334 11.5 -71.001 11.5c-38 0 -70.5 -4.83301 -97.5 -14.5s-48.667 -25.5 -65 -47.5s-28.166 -51 -35.499 -87s-11 -80.667 -11 -134v-1020h-164v881h-160z" />
    <glyph glyph-name="agrave" unicode="&#xe0;" horiz-adv-x="1015" 
d="M80 274c0 60 12.332 110.161 36.999 150.494s59.167 72.5 103.5 96.5s97.5 41.167 159.5 51.5s130.667 15.5 206 15.5h56.5c18.333 0 36.833 -1.33301 55.5 -4c4 40.667 6.33301 77.334 7 110.001c0 75.333 -15.167 128 -45.5 158s-84.833 45 -163.5 45
c-23.333 0 -48.333 -1.66699 -75 -5s-54 -8.16602 -82 -14.499s-54.667 -13.833 -80 -22.5s-47.333 -18.667 -66 -30l-52 123c52 31.333 112.5 54.5 181.5 69.5s141.167 22.5 216.5 22.5c70.667 0 127.5 -9.5 170.5 -28.5s75.833 -43.833 98.5 -74.5s37.667 -64.5 45 -101.5
s11 -73.833 11 -110.5c0 -82 -2 -161.833 -6 -239.5s-6 -151.5 -6 -221.5c0 -50.667 2 -98.5 6 -143.5s11.667 -86.5 23 -124.5h-121l-43 143h-10c-12 -19.333 -27.333 -38.166 -46 -56.499s-41 -34.666 -67 -48.999s-56 -26.166 -90 -35.499s-73 -14 -117 -14
s-84.667 6.83301 -122 20.5s-69.666 33 -96.999 58s-48.833 55.333 -64.5 91s-23.5 75.834 -23.5 120.501zM249.999 290.994c0 -48 17.002 -87.333 51.002 -118s77.667 -46 131 -46c38 0 72.167 5.16699 102.5 15.5s56.333 23.333 78 39s39.667 33 54 52
s24.833 37.5 31.5 55.5v170c-19.333 1.33301 -38.833 2.33301 -58.5 3s-38.834 1 -57.501 1c-42 0 -83.333 -2.33301 -124 -7s-76.334 -13.5 -107.001 -26.5s-55.167 -30.833 -73.5 -53.5s-27.5 -51 -27.5 -85zM297.001 1431.99v43h194l134 -306h-93z" />
    <glyph glyph-name="aacute" unicode="&#xe1;" horiz-adv-x="1015" 
d="M80 274c0 60 12.332 110.161 36.999 150.494s59.167 72.5 103.5 96.5s97.5 41.167 159.5 51.5s130.667 15.5 206 15.5h56.5c18.333 0 36.833 -1.33301 55.5 -4c4 40.667 6.33301 77.334 7 110.001c0 75.333 -15.167 128 -45.5 158s-84.833 45 -163.5 45
c-23.333 0 -48.333 -1.66699 -75 -5s-54 -8.16602 -82 -14.499s-54.667 -13.833 -80 -22.5s-47.333 -18.667 -66 -30l-52 123c52 31.333 112.5 54.5 181.5 69.5s141.167 22.5 216.5 22.5c70.667 0 127.5 -9.5 170.5 -28.5s75.833 -43.833 98.5 -74.5s37.667 -64.5 45 -101.5
s11 -73.833 11 -110.5c0 -82 -2 -161.833 -6 -239.5s-6 -151.5 -6 -221.5c0 -50.667 2 -98.5 6 -143.5s11.667 -86.5 23 -124.5h-121l-43 143h-10c-12 -19.333 -27.333 -38.166 -46 -56.499s-41 -34.666 -67 -48.999s-56 -26.166 -90 -35.499s-73 -14 -117 -14
s-84.667 6.83301 -122 20.5s-69.666 33 -96.999 58s-48.833 55.333 -64.5 91s-23.5 75.834 -23.5 120.501zM249.999 290.994c0 -48 17.002 -87.333 51.002 -118s77.667 -46 131 -46c38 0 72.167 5.16699 102.5 15.5s56.333 23.333 78 39s39.667 33 54 52
s24.833 37.5 31.5 55.5v170c-19.333 1.33301 -38.833 2.33301 -58.5 3s-38.834 1 -57.501 1c-42 0 -83.333 -2.33301 -124 -7s-76.334 -13.5 -107.001 -26.5s-55.167 -30.833 -73.5 -53.5s-27.5 -51 -27.5 -85zM367.001 1168.99l121 306h182v-43l-207 -263h-96z" />
    <glyph glyph-name="acircumflex" unicode="&#xe2;" horiz-adv-x="1015" 
d="M80 274c0 60 12.332 110.161 36.999 150.494s59.167 72.5 103.5 96.5s97.5 41.167 159.5 51.5s130.667 15.5 206 15.5h56.5c18.333 0 36.833 -1.33301 55.5 -4c4 40.667 6.33301 77.334 7 110.001c0 75.333 -15.167 128 -45.5 158s-84.833 45 -163.5 45
c-23.333 0 -48.333 -1.66699 -75 -5s-54 -8.16602 -82 -14.499s-54.667 -13.833 -80 -22.5s-47.333 -18.667 -66 -30l-52 123c52 31.333 112.5 54.5 181.5 69.5s141.167 22.5 216.5 22.5c70.667 0 127.5 -9.5 170.5 -28.5s75.833 -43.833 98.5 -74.5s37.667 -64.5 45 -101.5
s11 -73.833 11 -110.5c0 -82 -2 -161.833 -6 -239.5s-6 -151.5 -6 -221.5c0 -50.667 2 -98.5 6 -143.5s11.667 -86.5 23 -124.5h-121l-43 143h-10c-12 -19.333 -27.333 -38.166 -46 -56.499s-41 -34.666 -67 -48.999s-56 -26.166 -90 -35.499s-73 -14 -117 -14
s-84.667 6.83301 -122 20.5s-69.666 33 -96.999 58s-48.833 55.333 -64.5 91s-23.5 75.834 -23.5 120.501zM237.999 1125.99l252 373h65l228 -373h-148l-80 136l-43 118l-45 -118l-92 -136h-137zM249.999 290.994c0 -48 17.002 -87.333 51.002 -118s77.667 -46 131 -46
c38 0 72.167 5.16699 102.5 15.5s56.333 23.333 78 39s39.667 33 54 52s24.833 37.5 31.5 55.5v170c-19.333 1.33301 -38.833 2.33301 -58.5 3s-38.834 1 -57.501 1c-42 0 -83.333 -2.33301 -124 -7s-76.334 -13.5 -107.001 -26.5s-55.167 -30.833 -73.5 -53.5
s-27.5 -51 -27.5 -85z" />
    <glyph glyph-name="atilde" unicode="&#xe3;" horiz-adv-x="1015" 
d="M80 274c0 60 12.332 110.161 36.999 150.494s59.167 72.5 103.5 96.5s97.5 41.167 159.5 51.5s130.667 15.5 206 15.5h56.5c18.333 0 36.833 -1.33301 55.5 -4c4 40.667 6.33301 77.334 7 110.001c0 75.333 -15.167 128 -45.5 158s-84.833 45 -163.5 45
c-23.333 0 -48.333 -1.66699 -75 -5s-54 -8.16602 -82 -14.499s-54.667 -13.833 -80 -22.5s-47.333 -18.667 -66 -30l-52 123c52 31.333 112.5 54.5 181.5 69.5s141.167 22.5 216.5 22.5c70.667 0 127.5 -9.5 170.5 -28.5s75.833 -43.833 98.5 -74.5s37.667 -64.5 45 -101.5
s11 -73.833 11 -110.5c0 -82 -2 -161.833 -6 -239.5s-6 -151.5 -6 -221.5c0 -50.667 2 -98.5 6 -143.5s11.667 -86.5 23 -124.5h-121l-43 143h-10c-12 -19.333 -27.333 -38.166 -46 -56.499s-41 -34.666 -67 -48.999s-56 -26.166 -90 -35.499s-73 -14 -117 -14
s-84.667 6.83301 -122 20.5s-69.666 33 -96.999 58s-48.833 55.333 -64.5 91s-23.5 75.834 -23.5 120.501zM222.999 1342.99c39.333 45.333 75.499 76.498 108.499 93.498s63.167 25.5 90.5 25.5c23.333 0 44.833 -4.33301 64.5 -13s38.667 -18.167 57 -28.5
s36 -19.666 53 -27.999s35.167 -12.5 54.5 -12.5c30 0 61.333 16.667 94 50l49 -89c-35.333 -39.333 -67.666 -66.166 -96.999 -80.499s-56.333 -21.5 -81 -21.5c-22 0 -42.5 4.16699 -61.5 12.5s-37.667 17.5 -56 27.5s-36.833 19.5 -55.5 28.5s-37.334 13.5 -56.001 13.5
c-18 0 -36.167 -4.83301 -54.5 -14.5s-39.166 -26.167 -62.499 -49.5zM249.998 290.992c0 -48 17.002 -87.333 51.002 -118s77.667 -46 131 -46c38 0 72.167 5.16699 102.5 15.5s56.333 23.333 78 39s39.667 33 54 52s24.833 37.5 31.5 55.5v170
c-19.333 1.33301 -38.833 2.33301 -58.5 3s-38.834 1 -57.501 1c-42 0 -83.333 -2.33301 -124 -7s-76.334 -13.5 -107.001 -26.5s-55.167 -30.833 -73.5 -53.5s-27.5 -51 -27.5 -85z" />
    <glyph glyph-name="adieresis" unicode="&#xe4;" horiz-adv-x="1015" 
d="M80 274c0 60 12.332 110.161 36.999 150.494s59.167 72.5 103.5 96.5s97.5 41.167 159.5 51.5s130.667 15.5 206 15.5h56.5c18.333 0 36.833 -1.33301 55.5 -4c4 40.667 6.33301 77.334 7 110.001c0 75.333 -15.167 128 -45.5 158s-84.833 45 -163.5 45
c-23.333 0 -48.333 -1.66699 -75 -5s-54 -8.16602 -82 -14.499s-54.667 -13.833 -80 -22.5s-47.333 -18.667 -66 -30l-52 123c52 31.333 112.5 54.5 181.5 69.5s141.167 22.5 216.5 22.5c70.667 0 127.5 -9.5 170.5 -28.5s75.833 -43.833 98.5 -74.5s37.667 -64.5 45 -101.5
s11 -73.833 11 -110.5c0 -82 -2 -161.833 -6 -239.5s-6 -151.5 -6 -221.5c0 -50.667 2 -98.5 6 -143.5s11.667 -86.5 23 -124.5h-121l-43 143h-10c-12 -19.333 -27.333 -38.166 -46 -56.499s-41 -34.666 -67 -48.999s-56 -26.166 -90 -35.499s-73 -14 -117 -14
s-84.667 6.83301 -122 20.5s-69.666 33 -96.999 58s-48.833 55.333 -64.5 91s-23.5 75.834 -23.5 120.501zM214.999 1336.99c0 31.333 9.16699 56.666 27.5 75.999s42.5 29 72.5 29s54.333 -9.66699 73 -29s28 -44.666 28 -75.999c0 -28.667 -9.33301 -52.5 -28 -71.5
s-43 -28.5 -73 -28.5s-54.167 9.5 -72.5 28.5s-27.5 42.833 -27.5 71.5zM249.999 290.994c0 -48 17.002 -87.333 51.002 -118s77.667 -46 131 -46c38 0 72.167 5.16699 102.5 15.5s56.333 23.333 78 39s39.667 33 54 52s24.833 37.5 31.5 55.5v170
c-19.333 1.33301 -38.833 2.33301 -58.5 3s-38.834 1 -57.501 1c-42 0 -83.333 -2.33301 -124 -7s-76.334 -13.5 -107.001 -26.5s-55.167 -30.833 -73.5 -53.5s-27.5 -51 -27.5 -85zM608.001 1336.99c0 31.333 9.16699 56.666 27.5 75.999s42.5 29 72.5 29
c31.333 0 56.333 -9.66699 75 -29s28 -44.666 28 -75.999c0 -28.667 -9.16699 -52.5 -27.5 -71.5s-43.5 -28.5 -75.5 -28.5c-30 0 -54.167 9.5 -72.5 28.5s-27.5 42.833 -27.5 71.5z" />
    <glyph glyph-name="aring" unicode="&#xe5;" horiz-adv-x="1015" 
d="M80 274c0 60 12.332 110.161 36.999 150.494s59.167 72.5 103.5 96.5s97.5 41.167 159.5 51.5s130.667 15.5 206 15.5h56.5c18.333 0 36.833 -1.33301 55.5 -4c4 40.667 6.33301 77.334 7 110.001c0 75.333 -15.167 128 -45.5 158s-84.833 45 -163.5 45
c-23.333 0 -48.333 -1.66699 -75 -5s-54 -8.16602 -82 -14.499s-54.667 -13.833 -80 -22.5s-47.333 -18.667 -66 -30l-52 123c52 31.333 112.5 54.5 181.5 69.5s141.167 22.5 216.5 22.5c70.667 0 127.5 -9.5 170.5 -28.5s75.833 -43.833 98.5 -74.5s37.667 -64.5 45 -101.5
s11 -73.833 11 -110.5c0 -82 -2 -161.833 -6 -239.5s-6 -151.5 -6 -221.5c0 -50.667 2 -98.5 6 -143.5s11.667 -86.5 23 -124.5h-121l-43 143h-10c-12 -19.333 -27.333 -38.166 -46 -56.499s-41 -34.666 -67 -48.999s-56 -26.166 -90 -35.499s-73 -14 -117 -14
s-84.667 6.83301 -122 20.5s-69.666 33 -96.999 58s-48.833 55.333 -64.5 91s-23.5 75.834 -23.5 120.501zM249.999 290.994c0 -48 17.002 -87.333 51.002 -118s77.667 -46 131 -46c38 0 72.167 5.16699 102.5 15.5s56.333 23.333 78 39s39.667 33 54 52
s24.833 37.5 31.5 55.5v170c-19.333 1.33301 -38.833 2.33301 -58.5 3s-38.834 1 -57.501 1c-42 0 -83.333 -2.33301 -124 -7s-76.334 -13.5 -107.001 -26.5s-55.167 -30.833 -73.5 -53.5s-27.5 -51 -27.5 -85zM311.001 1316.99c0 57.333 18 102.667 54 136
s84.333 50 145 50c57.333 0 105 -15 143 -45s57 -77 57 -141c0 -53.333 -19 -97.333 -57 -132s-85.667 -52 -143 -52s-104.833 16 -142.5 48s-56.5 77.333 -56.5 136zM421.001 1317c0 -27.333 9.00098 -48.5 27.001 -63.5s38.667 -22.5 62 -22.5
c26 0 47.5 6.83301 64.5 20.5s25.5 35.5 25.5 65.5s-9.33301 52.167 -28 66.5s-39.334 21.5 -62.001 21.5c-23.333 0 -44 -6.83301 -62 -20.5s-27 -36.167 -27 -67.5z" />
    <glyph glyph-name="ae" unicode="&#xe6;" horiz-adv-x="1630" 
d="M80 274c0 60 12.3291 110.161 36.9961 150.494s59.167 72.5 103.5 96.5s97.5 41.167 159.5 51.5s130.667 15.5 206 15.5h56.5c18.333 0 36.833 -1.33301 55.5 -4c1.33301 20.667 2.83301 40.167 4.5 58.5s2.5 35.5 2.5 51.5c0 75.333 -15.167 128.333 -45.5 159
s-84.833 45.334 -163.5 44.001c-23.333 0 -48.333 -1.66699 -75 -5s-54 -8.16602 -82 -14.499s-54.667 -13.833 -80 -22.5s-47.333 -18.667 -66 -30l-52 123c52 31.333 112.5 54.5 181.5 69.5s141.167 22.5 216.5 22.5c143.333 0 236 -44.333 278 -133
c35.333 49.333 83.166 85.333 143.499 108s120.5 34 180.5 34c46.667 0 93.167 -5.16699 139.5 -15.5s87.833 -30.166 124.5 -59.499s66.667 -70.666 90 -123.999s35 -123 35 -209c0 -22 -1 -44.833 -3 -68.5s-4.33301 -49.167 -7 -76.5h-662
c0 -118.667 25 -211.167 75 -277.5s135 -99.5 255 -99.5c48 0 94.833 8.5 140.5 25.5s80.834 35.833 105.501 56.5l61 -119c-40.667 -32.667 -92.167 -58.667 -154.5 -78s-128.166 -29 -197.499 -29c-83.333 0 -158.833 17.167 -226.5 51.5s-117.834 82.833 -150.501 145.5
h-14c-18 -24.667 -38.667 -48.167 -62 -70.5s-49.666 -42.166 -78.999 -59.499s-62.666 -31.333 -99.999 -42s-78.666 -16 -123.999 -16c-44 0 -84.667 6.83301 -122 20.5s-69.666 33 -96.999 58s-48.833 55.333 -64.5 91s-23.5 75.834 -23.5 120.501zM249.996 290.994
c0 -48 17.002 -87.333 51.002 -118s77.667 -46 131 -46c38 0 72.167 5.16699 102.5 15.5s56.333 23.333 78 39s39.667 33 54 52s24.833 37.5 31.5 55.5v170c-19.333 1.33301 -38.833 2.33301 -58.5 3s-38.834 1 -57.501 1c-42 0 -83.333 -2.33301 -124 -7
s-76.334 -13.5 -107.001 -26.5s-55.167 -30.833 -73.5 -53.5s-27.5 -51 -27.5 -85zM861.998 624.994h508v24c0 92.667 -20.833 158.5 -62.5 197.5s-96.5 58.5 -164.5 58.5c-80.667 0 -145.667 -21.167 -195 -63.5s-78 -114.5 -86 -216.5z" />
    <glyph glyph-name="ccedilla" unicode="&#xe7;" horiz-adv-x="923" 
d="M100 512c0 173.333 38.3359 306.169 115.003 398.502s186.667 138.5 330 138.5c65.333 0 120.833 -5.16699 166.5 -15.5s87.167 -25.166 124.5 -44.499l-48 -141c-31.333 18 -66 32 -104 42s-79 15 -123 15c-194 0 -291 -131 -291 -393c0 -52 5.16699 -101.5 15.5 -148.5
s27.5 -88.667 51.5 -125s55.333 -65 94 -86s86.667 -31.5 144 -31.5c49.333 0 93.5 7.16699 132.5 21.5s70.833 31.166 95.5 50.499l53 -125c-66.667 -48 -149.334 -77.333 -248.001 -88l-37 -68c57.333 -10.667 98.666 -28.334 123.999 -53.001s38 -58.334 38 -101.001
c0 -53.333 -21.833 -97.333 -65.5 -132s-105.167 -52 -184.5 -52c-15.333 0 -30.333 0.666992 -45 2s-30.334 3.33301 -47.001 6l19 80c8 -1.33301 15.333 -2 22 -2h21c30 0 53.5 2.66699 70.5 8s29.833 11.833 38.5 19.5s14.167 16.334 16.5 26.001s3.5 18.5 3.5 26.5
c0 38 -58.667 63.333 -176 76l86 161c-70.667 4 -130.667 19.833 -180 47.5s-89.833 64.667 -121.5 111s-54.667 101.166 -69 164.499s-21.5 134 -21.5 212z" />
    <glyph glyph-name="egrave" unicode="&#xe8;" horiz-adv-x="1040" 
d="M100 512c0 174.667 39 307.836 117 399.503s189.333 137.5 334 137.5c46.667 0 93.167 -5.16699 139.5 -15.5s87.833 -29.833 124.5 -58.5s66.667 -69.334 90 -122.001s35 -122 35 -208c0 -45.333 -4 -95 -12 -149h-658c0 -60 6.16699 -113.333 18.5 -160
s31.5 -86 57.5 -118s59.833 -56.5 101.5 -73.5s92.5 -25.5 152.5 -25.5c46.667 0 93.167 8.16699 139.5 24.5s81.166 35.5 104.499 57.5l61 -119c-40.667 -32.667 -92.167 -58.667 -154.5 -78s-128.166 -29 -197.499 -29c-78 0 -145.667 12.667 -203 38
s-104.333 61.666 -141 108.999s-64 103.666 -82 168.999s-27 139 -27 221zM272 625.002h508c0 104 -19.667 176.667 -59 218s-95.333 62 -168 62c-80.667 0 -145.167 -21.167 -193.5 -63.5s-77.5 -114.5 -87.5 -216.5zM348 1432v43h194l134 -306h-93z" />
    <glyph glyph-name="eacute" unicode="&#xe9;" horiz-adv-x="1040" 
d="M100 512c0 174.667 39 307.836 117 399.503s189.333 137.5 334 137.5c46.667 0 93.167 -5.16699 139.5 -15.5s87.833 -29.833 124.5 -58.5s66.667 -69.334 90 -122.001s35 -122 35 -208c0 -45.333 -4 -95 -12 -149h-658c0 -60 6.16699 -113.333 18.5 -160
s31.5 -86 57.5 -118s59.833 -56.5 101.5 -73.5s92.5 -25.5 152.5 -25.5c46.667 0 93.167 8.16699 139.5 24.5s81.166 35.5 104.499 57.5l61 -119c-40.667 -32.667 -92.167 -58.667 -154.5 -78s-128.166 -29 -197.499 -29c-78 0 -145.667 12.667 -203 38
s-104.333 61.666 -141 108.999s-64 103.666 -82 168.999s-27 139 -27 221zM272 625.002h508c0 104 -19.667 176.667 -59 218s-95.333 62 -168 62c-80.667 0 -145.167 -21.167 -193.5 -63.5s-77.5 -114.5 -87.5 -216.5zM475 1169l121 306h182v-43l-207 -263h-96z" />
    <glyph glyph-name="ecircumflex" unicode="&#xea;" horiz-adv-x="1040" 
d="M100 512c0 174.667 39 307.836 117 399.503s189.333 137.5 334 137.5c46.667 0 93.167 -5.16699 139.5 -15.5s87.833 -29.833 124.5 -58.5s66.667 -69.334 90 -122.001s35 -122 35 -208c0 -45.333 -4 -95 -12 -149h-658c0 -60 6.16699 -113.333 18.5 -160
s31.5 -86 57.5 -118s59.833 -56.5 101.5 -73.5s92.5 -25.5 152.5 -25.5c46.667 0 93.167 8.16699 139.5 24.5s81.166 35.5 104.499 57.5l61 -119c-40.667 -32.667 -92.167 -58.667 -154.5 -78s-128.166 -29 -197.499 -29c-78 0 -145.667 12.667 -203 38
s-104.333 61.666 -141 108.999s-64 103.666 -82 168.999s-27 139 -27 221zM250 1126l252 373h65l228 -373h-148l-80 136l-43 118l-45 -118l-92 -136h-137zM272 625.002h508c0 104 -19.667 176.667 -59 218s-95.333 62 -168 62c-80.667 0 -145.167 -21.167 -193.5 -63.5
s-77.5 -114.5 -87.5 -216.5z" />
    <glyph glyph-name="edieresis" unicode="&#xeb;" horiz-adv-x="1040" 
d="M100 512c0 174.667 39 307.836 117 399.503s189.333 137.5 334 137.5c46.667 0 93.167 -5.16699 139.5 -15.5s87.833 -29.833 124.5 -58.5s66.667 -69.334 90 -122.001s35 -122 35 -208c0 -45.333 -4 -95 -12 -149h-658c0 -60 6.16699 -113.333 18.5 -160
s31.5 -86 57.5 -118s59.833 -56.5 101.5 -73.5s92.5 -25.5 152.5 -25.5c46.667 0 93.167 8.16699 139.5 24.5s81.166 35.5 104.499 57.5l61 -119c-40.667 -32.667 -92.167 -58.667 -154.5 -78s-128.166 -29 -197.499 -29c-78 0 -145.667 12.667 -203 38
s-104.333 61.666 -141 108.999s-64 103.666 -82 168.999s-27 139 -27 221zM244 1337c0 31.333 9.16699 56.666 27.5 75.999s42.5 29 72.5 29s54.333 -9.66699 73 -29s28 -44.666 28 -75.999c0 -28.667 -9.33301 -52.5 -28 -71.5s-43 -28.5 -73 -28.5s-54.167 9.5 -72.5 28.5
s-27.5 42.833 -27.5 71.5zM272 625.002h508c0 104 -19.667 176.667 -59 218s-95.333 62 -168 62c-80.667 0 -145.167 -21.167 -193.5 -63.5s-77.5 -114.5 -87.5 -216.5zM637 1337c0 31.333 9.16699 56.666 27.5 75.999s42.5 29 72.5 29c31.333 0 56.333 -9.66699 75 -29
s28 -44.666 28 -75.999c0 -28.667 -9.16699 -52.5 -27.5 -71.5s-43.5 -28.5 -75.5 -28.5c-30 0 -54.167 9.5 -72.5 28.5s-27.5 42.833 -27.5 71.5z" />
    <glyph glyph-name="igrave" unicode="&#xec;" horiz-adv-x="548" 
d="M25 1432v43h194l134 -306h-93zM193 0v1024h163v-1024h-163z" />
    <glyph glyph-name="iacute" unicode="&#xed;" horiz-adv-x="548" 
d="M193 0v1024h163v-1024h-163zM195 1169l121 306h182v-43l-207 -263h-96z" />
    <glyph glyph-name="icircumflex" unicode="&#xee;" horiz-adv-x="548" 
d="M-4 1126l252 373h65l228 -373h-148l-80 136l-43 118l-45 -118l-92 -136h-137zM193 0v1024h163v-1024h-163z" />
    <glyph glyph-name="idieresis" unicode="&#xef;" horiz-adv-x="548" 
d="M-24 1337c0 31.333 9.16699 56.666 27.5 75.999s42.5 29 72.5 29s54.333 -9.66699 73 -29s28 -44.666 28 -75.999c0 -28.667 -9.33301 -52.5 -28 -71.5s-43 -28.5 -73 -28.5s-54.167 9.5 -72.5 28.5s-27.5 42.833 -27.5 71.5zM193 0v1024h163v-1024h-163zM369 1337
c0 31.333 9.16699 56.666 27.5 75.999s42.5 29 72.5 29c31.333 0 56.333 -9.66699 75 -29s28 -44.666 28 -75.999c0 -28.667 -9.16699 -52.5 -27.5 -71.5s-43.5 -28.5 -75.5 -28.5c-30 0 -54.167 9.5 -72.5 28.5s-27.5 42.833 -27.5 71.5z" />
    <glyph glyph-name="eth" unicode="&#xf0;" horiz-adv-x="1148" 
d="M115 514c0 70.667 9.83203 138.167 29.499 202.5s49 120.666 88 168.999s86.833 86.833 143.5 115.5s122.334 43 197.001 43c61.333 0 115.333 -9.5 162 -28.5s79.667 -40.833 99 -65.5c-15.333 50.667 -38 98.5 -68 143.5s-64.667 85.167 -104 120.5l-156 -84l-55 91
l116 63c-52 31.333 -103.667 53.333 -155 66l71 110c24.667 -9.33301 56.167 -22.166 94.5 -38.499s77.833 -38.833 118.5 -67.5l140 76l53 -93l-103 -55c32.667 -31.333 64.167 -67.833 94.5 -109.5s57 -90.167 80 -145.5s41.333 -117.833 55 -187.5
s20.5 -148.167 20.5 -235.5c0 -110.667 -12.167 -205.5 -36.5 -284.5s-57.333 -144.167 -99 -195.5s-90.167 -89 -145.5 -113s-114.333 -36 -177 -36c-83.333 0 -154.5 14.333 -213.5 43s-106.833 67.667 -143.5 117s-63.5 106.333 -80.5 171s-25.5 134 -25.5 208z
M284.999 512c0 -134 28 -232.999 84 -296.999s128.333 -96 217 -96c40.667 0 78.5 8.83301 113.5 26.5s65 45.667 90 84s45 87.5 60 147.5s22.5 132.333 22.5 217c0 13.333 -0.333008 28.666 -1 45.999l-2 51.5c-0.666992 17 -2 33.333 -4 49s-4.33301 28.834 -7 39.501
c-10.667 19.333 -26 36.5 -46 51.5s-41.833 27.667 -65.5 38s-49.167 18.166 -76.5 23.499s-54 8 -80 8c-53.333 0 -99.5 -10.167 -138.5 -30.5s-70.833 -48 -95.5 -83s-42.667 -76 -54 -123s-17 -97.833 -17 -152.5z" />
    <glyph glyph-name="ntilde" unicode="&#xf1;" horiz-adv-x="1120" 
d="M158 0v1024h114l31 -125h8c32.667 44 76.667 80 132 108s121.333 42 198 42c56 0 105.167 -6.5 147.5 -19.5s77.5 -36 105.5 -69s49.167 -77.167 63.5 -132.5s21.5 -125.333 21.5 -210v-618h-164v584c0 106.667 -15.333 186.834 -46 240.501s-87 80.5 -169 80.5
c-72.667 0 -132.5 -19.5 -179.5 -58.5s-79.833 -87.833 -98.5 -146.5v-700h-164zM275 1343c39.333 45.333 75.499 76.498 108.499 93.498s63.167 25.5 90.5 25.5c23.333 0 44.833 -4.33301 64.5 -13s38.667 -18.167 57 -28.5s36 -19.666 53 -27.999s35.167 -12.5 54.5 -12.5
c30 0 61.333 16.667 94 50l49 -89c-35.333 -39.333 -67.666 -66.166 -96.999 -80.499s-56.333 -21.5 -81 -21.5c-22 0 -42.5 4.16699 -61.5 12.5s-37.667 17.5 -56 27.5s-36.833 19.5 -55.5 28.5s-37.334 13.5 -56.001 13.5c-18 0 -36.167 -4.83301 -54.5 -14.5
s-39.166 -26.167 -62.499 -49.5z" />
    <glyph glyph-name="ograve" unicode="&#xf2;" horiz-adv-x="1097" 
d="M100 512c0 173.333 38.666 306.166 115.999 398.499s188.333 138.5 333 138.5c76.667 0 143.334 -12.667 200.001 -38s103.334 -61.666 140.001 -108.999s63.834 -104 81.501 -170s26.5 -139.333 26.5 -220c0 -173.333 -38.5 -306.166 -115.5 -398.499
s-187.833 -138.5 -332.5 -138.5c-76.667 0 -143.334 12.667 -200.001 38s-103.334 61.666 -140.001 108.999s-64 104 -82 170s-27 139.333 -27 220zM269.999 512c0 -52 5.16699 -101.832 15.5 -149.499s26.5 -89.334 48.5 -125.001s50.667 -64.334 86 -86.001
s78.333 -32.5 129 -32.5c186 -1.33301 278.667 129.667 278 393c0 53.333 -5 103.833 -15 151.5s-26 89.334 -48 125.001s-50.667 64 -86 85s-78.333 31.5 -129 31.5c-186 1.33301 -279 -129.667 -279 -393zM321.999 1432v43h194l134 -306h-93z" />
    <glyph glyph-name="oacute" unicode="&#xf3;" horiz-adv-x="1097" 
d="M100 512c0 173.333 38.666 306.166 115.999 398.499s188.333 138.5 333 138.5c76.667 0 143.334 -12.667 200.001 -38s103.334 -61.666 140.001 -108.999s63.834 -104 81.501 -170s26.5 -139.333 26.5 -220c0 -173.333 -38.5 -306.166 -115.5 -398.499
s-187.833 -138.5 -332.5 -138.5c-76.667 0 -143.334 12.667 -200.001 38s-103.334 61.666 -140.001 108.999s-64 104 -82 170s-27 139.333 -27 220zM269.999 512c0 -52 5.16699 -101.832 15.5 -149.499s26.5 -89.334 48.5 -125.001s50.667 -64.334 86 -86.001
s78.333 -32.5 129 -32.5c186 -1.33301 278.667 129.667 278 393c0 53.333 -5 103.833 -15 151.5s-26 89.334 -48 125.001s-50.667 64 -86 85s-78.333 31.5 -129 31.5c-186 1.33301 -279 -129.667 -279 -393zM464.999 1169l121 306h182v-43l-207 -263h-96z" />
    <glyph glyph-name="ocircumflex" unicode="&#xf4;" horiz-adv-x="1097" 
d="M100 512c0 173.333 38.666 306.166 115.999 398.499s188.333 138.5 333 138.5c76.667 0 143.334 -12.667 200.001 -38s103.334 -61.666 140.001 -108.999s63.834 -104 81.501 -170s26.5 -139.333 26.5 -220c0 -173.333 -38.5 -306.166 -115.5 -398.499
s-187.833 -138.5 -332.5 -138.5c-76.667 0 -143.334 12.667 -200.001 38s-103.334 61.666 -140.001 108.999s-64 104 -82 170s-27 139.333 -27 220zM269.999 512c0 -52 5.16699 -101.832 15.5 -149.499s26.5 -89.334 48.5 -125.001s50.667 -64.334 86 -86.001
s78.333 -32.5 129 -32.5c186 -1.33301 278.667 129.667 278 393c0 53.333 -5 103.833 -15 151.5s-26 89.334 -48 125.001s-50.667 64 -86 85s-78.333 31.5 -129 31.5c-186 1.33301 -279 -129.667 -279 -393zM276.999 1126l252 373h65l228 -373h-148l-80 136l-43 118
l-45 -118l-92 -136h-137z" />
    <glyph glyph-name="otilde" unicode="&#xf5;" horiz-adv-x="1097" 
d="M100 512c0 173.333 38.666 306.166 115.999 398.499s188.333 138.5 333 138.5c76.667 0 143.334 -12.667 200.001 -38s103.334 -61.666 140.001 -108.999s63.834 -104 81.501 -170s26.5 -139.333 26.5 -220c0 -173.333 -38.5 -306.166 -115.5 -398.499
s-187.833 -138.5 -332.5 -138.5c-76.667 0 -143.334 12.667 -200.001 38s-103.334 61.666 -140.001 108.999s-64 104 -82 170s-27 139.333 -27 220zM263.999 1343c39.333 45.333 75.499 76.498 108.499 93.498s63.167 25.5 90.5 25.5c23.333 0 44.833 -4.33301 64.5 -13
s38.667 -18.167 57 -28.5s36 -19.666 53 -27.999s35.167 -12.5 54.5 -12.5c30 0 61.333 16.667 94 50l49 -89c-35.333 -39.333 -67.666 -66.166 -96.999 -80.499s-56.333 -21.5 -81 -21.5c-22 0 -42.5 4.16699 -61.5 12.5s-37.667 17.5 -56 27.5s-36.833 19.5 -55.5 28.5
s-37.334 13.5 -56.001 13.5c-18 0 -36.167 -4.83301 -54.5 -14.5s-39.166 -26.167 -62.499 -49.5zM269.998 511.998c0 -52 5.16699 -101.832 15.5 -149.499s26.5 -89.334 48.5 -125.001s50.667 -64.334 86 -86.001s78.333 -32.5 129 -32.5
c186 -1.33301 278.667 129.667 278 393c0 53.333 -5 103.833 -15 151.5s-26 89.334 -48 125.001s-50.667 64 -86 85s-78.333 31.5 -129 31.5c-186 1.33301 -279 -129.667 -279 -393z" />
    <glyph glyph-name="odieresis" unicode="&#xf6;" horiz-adv-x="1097" 
d="M100 512c0 173.333 38.666 306.166 115.999 398.499s188.333 138.5 333 138.5c76.667 0 143.334 -12.667 200.001 -38s103.334 -61.666 140.001 -108.999s63.834 -104 81.501 -170s26.5 -139.333 26.5 -220c0 -173.333 -38.5 -306.166 -115.5 -398.499
s-187.833 -138.5 -332.5 -138.5c-76.667 0 -143.334 12.667 -200.001 38s-103.334 61.666 -140.001 108.999s-64 104 -82 170s-27 139.333 -27 220zM253.999 1337c0 31.333 9.16699 56.666 27.5 75.999s42.5 29 72.5 29s54.333 -9.66699 73 -29s28 -44.666 28 -75.999
c0 -28.667 -9.33301 -52.5 -28 -71.5s-43 -28.5 -73 -28.5s-54.167 9.5 -72.5 28.5s-27.5 42.833 -27.5 71.5zM269.999 512c0 -52 5.16699 -101.832 15.5 -149.499s26.5 -89.334 48.5 -125.001s50.667 -64.334 86 -86.001s78.333 -32.5 129 -32.5
c186 -1.33301 278.667 129.667 278 393c0 53.333 -5 103.833 -15 151.5s-26 89.334 -48 125.001s-50.667 64 -86 85s-78.333 31.5 -129 31.5c-186 1.33301 -279 -129.667 -279 -393zM646.999 1337c0 31.333 9.16699 56.666 27.5 75.999s42.5 29 72.5 29
c31.333 0 56.333 -9.66699 75 -29s28 -44.666 28 -75.999c0 -28.667 -9.16699 -52.5 -27.5 -71.5s-43.5 -28.5 -75.5 -28.5c-30 0 -54.167 9.5 -72.5 28.5s-27.5 42.833 -27.5 71.5z" />
    <glyph glyph-name="divide" unicode="&#xf7;" horiz-adv-x="1034" 
d="M82 618v148h868v-148h-868zM397 307c0 36.667 10.667 65.667 32 87s49.666 32 84.999 32c36.667 0 66 -10.667 88 -32s33 -50.333 33 -87c0 -35.333 -11 -64 -33 -86s-51.333 -33 -88 -33c-35.333 0 -63.666 11 -84.999 33s-32 50.667 -32 86zM397 1075
c0 36.667 10.667 65.667 32 87s49.666 32 84.999 32c36.667 0 66 -10.667 88 -32s33 -50.333 33 -87c0 -35.333 -11 -64 -33 -86s-51.333 -33 -88 -33c-35.333 0 -63.666 11 -84.999 33s-32 50.667 -32 86z" />
    <glyph glyph-name="oslash" unicode="&#xf8;" horiz-adv-x="1097" 
d="M100 512c0 173.333 38.667 306.166 116 398.499s188.333 138.5 333 138.5c100 0 183.333 -22 250 -66l53 72l102 -76l-59 -86c35.333 -46.667 61.166 -102 77.499 -166s24.5 -135.667 24.5 -215c0 -173.333 -38.5 -306.166 -115.5 -398.499
s-187.833 -138.5 -332.5 -138.5c-106.667 0 -194 24 -262 72l-56 -76l-106 78l68 94c-31.333 46.667 -54.666 101 -69.999 163s-23 130.667 -23 206zM270 512c0 -40.667 3.16797 -80.168 9.50098 -118.501s15.5 -73.166 27.5 -104.499l404 561
c-20.667 16.667 -44.334 30 -71.001 40s-57 15 -91 15c-186 1.33301 -279 -129.667 -279 -393zM377.001 179.999c22 -18 47 -32.667 75 -44s60.333 -17 97 -17c185.333 -1.33301 278 129.667 278 393c0 44 -3.33301 86 -10 126s-17.667 76.667 -33 110z" />
    <glyph glyph-name="ugrave" unicode="&#xf9;" horiz-adv-x="1103" 
d="M141 406l-0.00195312 618.001h164v-584c0 -53.333 3.16699 -100 9.5 -140s17 -73.333 32 -100s35.333 -46.834 61 -60.501s58.5 -20.5 98.5 -20.5c36.667 0 69.334 5.83301 98.001 17.5s54.334 27.667 77.001 48s42.5 43.833 59.5 70.5s30.833 55 41.5 85v684h164v-733
c0 -49.333 1.66699 -100.333 5 -153s9.33301 -98.667 18 -138h-113l-41 162h-10c-31.333 -53.333 -73.666 -97.833 -126.999 -133.5s-121 -53.5 -203 -53.5c-54.667 0 -102.834 6.5 -144.501 19.5s-76.5 36 -104.5 69s-49.167 77.167 -63.5 132.5s-21.5 125.333 -21.5 210z
M302.998 1432v43h194l134 -306h-93z" />
    <glyph glyph-name="uacute" unicode="&#xfa;" horiz-adv-x="1103" 
d="M141 406l-0.00195312 618.001h164v-584c0 -53.333 3.16699 -100 9.5 -140s17 -73.333 32 -100s35.333 -46.834 61 -60.501s58.5 -20.5 98.5 -20.5c36.667 0 69.334 5.83301 98.001 17.5s54.334 27.667 77.001 48s42.5 43.833 59.5 70.5s30.833 55 41.5 85v684h164v-733
c0 -49.333 1.66699 -100.333 5 -153s9.33301 -98.667 18 -138h-113l-41 162h-10c-31.333 -53.333 -73.666 -97.833 -126.999 -133.5s-121 -53.5 -203 -53.5c-54.667 0 -102.834 6.5 -144.501 19.5s-76.5 36 -104.5 69s-49.167 77.167 -63.5 132.5s-21.5 125.333 -21.5 210z
M462.998 1169l121 306h182v-43l-207 -263h-96z" />
    <glyph glyph-name="ucircumflex" unicode="&#xfb;" horiz-adv-x="1103" 
d="M141 406l-0.00195312 618.001h164v-584c0 -53.333 3.16699 -100 9.5 -140s17 -73.333 32 -100s35.333 -46.834 61 -60.501s58.5 -20.5 98.5 -20.5c36.667 0 69.334 5.83301 98.001 17.5s54.334 27.667 77.001 48s42.5 43.833 59.5 70.5s30.833 55 41.5 85v684h164v-733
c0 -49.333 1.66699 -100.333 5 -153s9.33301 -98.667 18 -138h-113l-41 162h-10c-31.333 -53.333 -73.666 -97.833 -126.999 -133.5s-121 -53.5 -203 -53.5c-54.667 0 -102.834 6.5 -144.501 19.5s-76.5 36 -104.5 69s-49.167 77.167 -63.5 132.5s-21.5 125.333 -21.5 210z
M280.998 1126l252 373h65l228 -373h-148l-80 136l-43 118l-45 -118l-92 -136h-137z" />
    <glyph glyph-name="udieresis" unicode="&#xfc;" horiz-adv-x="1103" 
d="M141 406l-0.00195312 618.001h164v-584c0 -53.333 3.16699 -100 9.5 -140s17 -73.333 32 -100s35.333 -46.834 61 -60.501s58.5 -20.5 98.5 -20.5c36.667 0 69.334 5.83301 98.001 17.5s54.334 27.667 77.001 48s42.5 43.833 59.5 70.5s30.833 55 41.5 85v684h164v-733
c0 -49.333 1.66699 -100.333 5 -153s9.33301 -98.667 18 -138h-113l-41 162h-10c-31.333 -53.333 -73.666 -97.833 -126.999 -133.5s-121 -53.5 -203 -53.5c-54.667 0 -102.834 6.5 -144.501 19.5s-76.5 36 -104.5 69s-49.167 77.167 -63.5 132.5s-21.5 125.333 -21.5 210z
M255.998 1337c0 31.333 9.16699 56.666 27.5 75.999s42.5 29 72.5 29s54.333 -9.66699 73 -29s28 -44.666 28 -75.999c0 -28.667 -9.33301 -52.5 -28 -71.5s-43 -28.5 -73 -28.5s-54.167 9.5 -72.5 28.5s-27.5 42.833 -27.5 71.5zM648.998 1337
c0 31.333 9.16699 56.666 27.5 75.999s42.5 29 72.5 29c31.333 0 56.333 -9.66699 75 -29s28 -44.666 28 -75.999c0 -28.667 -9.16699 -52.5 -27.5 -71.5s-43.5 -28.5 -75.5 -28.5c-30 0 -54.167 9.5 -72.5 28.5s-27.5 42.833 -27.5 71.5z" />
    <glyph glyph-name="yacute" unicode="&#xfd;" horiz-adv-x="954" 
d="M25 1024l188 -0.000976562l246 -664l57 -196h10l45 198l199 662h166l-303 -920l-69 -194c-22.667 -62.667 -47.5 -118.667 -74.5 -168s-57.667 -88.666 -92 -117.999s-73.833 -44 -118.5 -44c-49.333 0 -89.666 7 -120.999 21l28 141c18 -6.66699 35.333 -10 52 -10
c38 0 74.667 20.167 110 60.5s64.666 109.5 87.999 207.5zM447 1169l121 306h182v-43l-207 -263h-96z" />
    <glyph glyph-name="thorn" unicode="&#xfe;" horiz-adv-x="1107" 
d="M158 -410v1844h164v-512h8c27.333 39.333 63.5 70.333 108.5 93s99.5 34 163.5 34c136.667 0 238.5 -40.333 305.5 -121s100.5 -212.667 100.5 -396c0 -86 -11.333 -163.333 -34 -232s-54.5 -127 -95.5 -175s-90.5 -85 -148.5 -111s-122.333 -39 -193 -39
c-50.667 0 -90.667 3.16699 -120 9.5s-61 16.833 -95 31.5v-426h-164zM322 176c24.667 -19.333 52.666 -33.667 83.999 -43s72.666 -14 123.999 -14c94 0 168.833 35.167 224.5 105.5s83.5 173.833 83.5 310.5c0 56 -4.83301 106.833 -14.5 152.5s-25.167 84.5 -46.5 116.5
s-48.666 56.833 -81.999 74.5s-74.666 26.5 -123.999 26.5c-134 1.33301 -217 -71.667 -249 -219v-510z" />
    <glyph glyph-name="ydieresis" unicode="&#xff;" horiz-adv-x="954" 
d="M25 1024l188 -0.000976562l246 -664l57 -196h10l45 198l199 662h166l-303 -920l-69 -194c-22.667 -62.667 -47.5 -118.667 -74.5 -168s-57.667 -88.666 -92 -117.999s-73.833 -44 -118.5 -44c-49.333 0 -89.666 7 -120.999 21l28 141c18 -6.66699 35.333 -10 52 -10
c38 0 74.667 20.167 110 60.5s64.666 109.5 87.999 207.5zM182 1337c0 31.333 9.16699 56.666 27.5 75.999s42.5 29 72.5 29s54.333 -9.66699 73 -29s28 -44.666 28 -75.999c0 -28.667 -9.33301 -52.5 -28 -71.5s-43 -28.5 -73 -28.5s-54.167 9.5 -72.5 28.5
s-27.5 42.833 -27.5 71.5zM575 1337c0 31.333 9.16699 56.666 27.5 75.999s42.5 29 72.5 29c31.333 0 56.333 -9.66699 75 -29s28 -44.666 28 -75.999c0 -28.667 -9.16699 -52.5 -27.5 -71.5s-43.5 -28.5 -75.5 -28.5c-30 0 -54.167 9.5 -72.5 28.5s-27.5 42.833 -27.5 71.5
z" />
    <glyph glyph-name="OE" unicode="&#x152;" horiz-adv-x="1908" 
d="M115 717c0 238.667 50.501 421.833 151.501 549.5s244.833 191.5 431.5 191.5c64 0 117 -2.33301 159 -7s84.667 -10.334 128 -17.001h780v-152h-610v-469h559v-151h-559v-510h621v-152h-791c-34 -6.66699 -74.833 -12.5 -122.5 -17.5s-102.5 -7.5 -164.5 -7.5
c-100 0 -186.333 17.833 -259 53.5s-133.334 85.834 -182.001 150.501s-84.5 142.5 -107.5 233.5s-34.5 192.5 -34.5 304.5zM295.001 716.999c0 -79.333 7.83301 -154.5 23.5 -225.5s40.5 -133.5 74.5 -187.5s77.667 -97 131 -129s117 -48 191 -48
c39.333 0 79.833 1.33301 121.5 4s91.167 13 148.5 31v1104c-38 15.333 -82.333 26 -133 32s-102 9 -154 9c-125.333 0 -223.833 -48.167 -295.5 -144.5s-107.5 -244.833 -107.5 -445.5z" />
    <glyph glyph-name="oe" unicode="&#x153;" horiz-adv-x="1757" 
d="M100 512c0 173.333 38.6699 306.169 116.003 398.502s188.333 138.5 333 138.5c86 0 158.667 -17.833 218 -53.5s106.666 -80.834 141.999 -135.501c35.333 57.333 83.5 103.166 144.5 137.499s132.5 51.5 214.5 51.5c46.667 0 93.167 -5.16699 139.5 -15.5
s87.833 -29.833 124.5 -58.5s66.667 -69.334 90 -122.001s35 -122 35 -208c0 -23.333 -0.666992 -47.166 -2 -71.499s-4 -50.166 -8 -77.499h-662c0 -60 6.16699 -113.667 18.5 -161s31.5 -87.333 57.5 -120s60.167 -57.167 102.5 -73.5s93.5 -24.5 153.5 -24.5
c48 0 94.833 8.5 140.5 25.5s80.167 36.5 103.5 58.5l61 -119c-40.667 -32.667 -92.167 -58.667 -154.5 -78s-128.166 -29 -197.499 -29c-84.667 0 -157.834 17.167 -219.501 51.5s-110.167 80.833 -145.5 139.5c-36.667 -61.333 -84.667 -108.5 -144 -141.5
s-130 -49.5 -212 -49.5c-76.667 0 -143.334 12.667 -200.001 38s-103.334 61.666 -140.001 108.999s-64 104 -82 170s-27 139.333 -27 220zM270.003 512.003c0 -52 5.16699 -101.834 15.5 -149.501s26.5 -89.667 48.5 -126s50.667 -65 86 -86s78.333 -31.5 129 -31.5
c184 -1.33301 276 129.667 276 393c0 53.333 -4.66699 103.833 -14 151.5s-25 89.334 -47 125.001s-50.667 64 -86 85s-78.333 31.5 -129 31.5c-186 1.33301 -279 -129.667 -279 -393zM989.003 625.002h508v18c0 94 -20.5 161.5 -61.5 202.5s-96.167 61.5 -165.5 61.5
c-79.333 0 -143.5 -21.5 -192.5 -64.5s-78.5 -115.5 -88.5 -217.5z" />
    <glyph glyph-name="Ydieresis" unicode="&#x178;" horiz-adv-x="1142" 
d="M16 1434h199l336 -627l35 -125h2l37 129l321 623h182l-469 -863v-571h-170v569zM273 1626c0 28.667 10.167 51.834 30.5 69.501s46.833 26.5 79.5 26.5c31.333 0 57 -8.83301 77 -26.5s30 -40.834 30 -69.501c0 -27.333 -9.83301 -49.833 -29.5 -67.5
s-45.5 -26.5 -77.5 -26.5c-32.667 0 -59.167 8.83301 -79.5 26.5s-30.5 40.167 -30.5 67.5zM666 1626c0 28.667 9.83301 51.834 29.5 69.501s45.5 26.5 77.5 26.5c32.667 0 59.167 -8.83301 79.5 -26.5s30.5 -40.834 30.5 -69.501c0 -27.333 -10.167 -49.833 -30.5 -67.5
s-46.833 -26.5 -79.5 -26.5c-31.333 0 -57 8.83301 -77 26.5s-30 40.167 -30 67.5z" />
    <glyph glyph-name="circumflex" unicode="&#x2c6;" horiz-adv-x="790" 
d="M123 1126l252 373h65l228 -373h-148l-80 136l-43 118l-45 -118l-92 -136h-137z" />
    <glyph glyph-name="tilde" unicode="&#x2dc;" horiz-adv-x="817" 
d="M123 1343c39.333 45.333 75.499 76.498 108.499 93.498s63.167 25.5 90.5 25.5c23.333 0 44.833 -4.33301 64.5 -13s38.667 -18.167 57 -28.5s36 -19.666 53 -27.999s35.167 -12.5 54.5 -12.5c30 0 61.333 16.667 94 50l49 -89
c-35.333 -39.333 -67.666 -66.166 -96.999 -80.499s-56.333 -21.5 -81 -21.5c-22 0 -42.5 4.16699 -61.5 12.5s-37.667 17.5 -56 27.5s-36.833 19.5 -55.5 28.5s-37.334 13.5 -56.001 13.5c-18 0 -36.167 -4.83301 -54.5 -14.5s-39.166 -26.167 -62.499 -49.5z" />
    <glyph glyph-name="uni2000" unicode="&#x2000;" horiz-adv-x="891" 
 />
    <glyph glyph-name="uni2001" unicode="&#x2001;" horiz-adv-x="1782" 
 />
    <glyph glyph-name="uni2002" unicode="&#x2002;" horiz-adv-x="891" 
 />
    <glyph glyph-name="uni2003" unicode="&#x2003;" horiz-adv-x="1782" 
 />
    <glyph glyph-name="uni2004" unicode="&#x2004;" horiz-adv-x="594" 
 />
    <glyph glyph-name="uni2005" unicode="&#x2005;" horiz-adv-x="445" 
 />
    <glyph glyph-name="uni2006" unicode="&#x2006;" horiz-adv-x="297" 
 />
    <glyph glyph-name="uni2007" unicode="&#x2007;" horiz-adv-x="297" 
 />
    <glyph glyph-name="uni2008" unicode="&#x2008;" horiz-adv-x="222" 
 />
    <glyph glyph-name="uni2009" unicode="&#x2009;" horiz-adv-x="356" 
 />
    <glyph glyph-name="uni200A" unicode="&#x200a;" horiz-adv-x="99" 
 />
    <glyph glyph-name="uni2010" unicode="&#x2010;" horiz-adv-x="737" 
d="M121 514v152h495v-152h-495z" />
    <glyph glyph-name="uni2011" unicode="&#x2011;" horiz-adv-x="737" 
d="M121 514v152h495v-152h-495z" />
    <glyph glyph-name="figuredash" unicode="&#x2012;" horiz-adv-x="737" 
d="M121 514v152h495v-152h-495z" />
    <glyph glyph-name="endash" unicode="&#x2013;" horiz-adv-x="1351" 
d="M242 514v152h868v-152h-868z" />
    <glyph glyph-name="emdash" unicode="&#x2014;" horiz-adv-x="1679" 
d="M242 514v152h1196v-152h-1196z" />
    <glyph glyph-name="quoteleft" unicode="&#x2018;" horiz-adv-x="397" 
d="M82 1313c0 45.333 6.5 83.999 19.5 115.999s28.667 59.167 47 81.5s37.5 40.333 57.5 54s37.333 23.167 52 28.5l51 -71c-30 -15.333 -54.167 -35.666 -72.5 -60.999s-27.5 -57 -27.5 -95c5.33301 1.33301 12.666 2 21.999 2c27.333 0 48.5 -9.5 63.5 -28.5
s22.5 -42.167 22.5 -69.5c0 -31.333 -10.167 -56.333 -30.5 -75s-46.166 -28 -77.499 -28c-36.667 0 -67 12.333 -91 37s-36 61 -36 109z" />
    <glyph glyph-name="quoteright" unicode="&#x2019;" horiz-adv-x="397" 
d="M82 1350c0 31.333 9.83203 55.8359 29.499 73.5029s45.167 26.5 76.5 26.5c38 0 69 -12 93 -36s36 -59.667 36 -107c0 -45.333 -6.33301 -84.333 -19 -117s-28.334 -60.334 -47.001 -83.001s-38.167 -40.834 -58.5 -54.501s-38.166 -23.167 -53.499 -28.5l-51 70
c31.333 16.667 55.833 37.167 73.5 61.5s26.5 56.166 26.5 95.499c-5.33301 -1.33301 -12.666 -2 -21.999 -2c-26 0 -46.5 9.33301 -61.5 28s-22.5 43 -22.5 73z" />
    <glyph glyph-name="quotesinglbase" unicode="&#x201a;" horiz-adv-x="397" 
d="M82 103c0 31.333 9.83203 55.8359 29.499 73.5029s45.167 26.5 76.5 26.5c38 0 69 -12 93 -36s36 -59.667 36 -107c0 -45.333 -6.33301 -84.333 -19 -117s-28.334 -60.334 -47.001 -83.001s-38.167 -40.834 -58.5 -54.501s-38.166 -23.167 -53.499 -28.5l-51 70
c31.333 16.667 55.833 37.167 73.5 61.5s26.5 56.166 26.5 95.499c-5.33301 -1.33301 -12.666 -2 -21.999 -2c-26 0 -46.5 9.33301 -61.5 28s-22.5 43 -22.5 73z" />
    <glyph glyph-name="quotedblleft" unicode="&#x201c;" horiz-adv-x="696" 
d="M82 1313c0 45.333 6.5 83.999 19.5 115.999s28.667 59.167 47 81.5s37.5 40.333 57.5 54s37.333 23.167 52 28.5l51 -71c-30 -15.333 -54.167 -35.666 -72.5 -60.999s-27.5 -57 -27.5 -95c5.33301 1.33301 12.666 2 21.999 2c27.333 0 48.5 -9.5 63.5 -28.5
s22.5 -42.167 22.5 -69.5c0 -31.333 -10.167 -56.333 -30.5 -75s-46.166 -28 -77.499 -28c-36.667 0 -67 12.333 -91 37s-36 61 -36 109zM381 1313c0 45.333 6.5 83.999 19.5 115.999s28.667 59.167 47 81.5s37.5 40.333 57.5 54s37.333 23.167 52 28.5l51 -71
c-30 -15.333 -54.167 -35.666 -72.5 -60.999s-27.5 -57 -27.5 -95c5.33301 1.33301 12.666 2 21.999 2c27.333 0 48.5 -9.5 63.5 -28.5s22.5 -42.167 22.5 -69.5c0 -31.333 -10.167 -56.333 -30.5 -75s-46.166 -28 -77.499 -28c-36.667 0 -67 12.333 -91 37s-36 61 -36 109z
" />
    <glyph glyph-name="quotedblright" unicode="&#x201d;" horiz-adv-x="696" 
d="M82 1350c0 31.333 9.83203 55.8359 29.499 73.5029s45.167 26.5 76.5 26.5c38 0 69 -12 93 -36s36 -59.667 36 -107c0 -45.333 -6.33301 -84.333 -19 -117s-28.334 -60.334 -47.001 -83.001s-38.167 -40.834 -58.5 -54.501s-38.166 -23.167 -53.499 -28.5l-51 70
c31.333 16.667 55.833 37.167 73.5 61.5s26.5 56.166 26.5 95.499c-5.33301 -1.33301 -12.666 -2 -21.999 -2c-26 0 -46.5 9.33301 -61.5 28s-22.5 43 -22.5 73zM380.999 1350c0 31.333 9.83203 55.8359 29.499 73.5029s45.167 26.5 76.5 26.5c38 0 69 -12 93 -36
s36 -59.667 36 -107c0 -45.333 -6.33301 -84.333 -19 -117s-28.334 -60.334 -47.001 -83.001s-38.167 -40.834 -58.5 -54.501s-38.166 -23.167 -53.499 -28.5l-51 70c31.333 16.667 55.833 37.167 73.5 61.5s26.5 56.166 26.5 95.499
c-5.33301 -1.33301 -12.666 -2 -21.999 -2c-26 0 -46.5 9.33301 -61.5 28s-22.5 43 -22.5 73z" />
    <glyph glyph-name="quotedblbase" unicode="&#x201e;" horiz-adv-x="696" 
d="M82 103c0 31.333 9.83203 55.8359 29.499 73.5029s45.167 26.5 76.5 26.5c38 0 69 -12 93 -36s36 -59.667 36 -107c0 -45.333 -6.33301 -84.333 -19 -117s-28.334 -60.334 -47.001 -83.001s-38.167 -40.834 -58.5 -54.501s-38.166 -23.167 -53.499 -28.5l-51 70
c31.333 16.667 55.833 37.167 73.5 61.5s26.5 56.166 26.5 95.499c-5.33301 -1.33301 -12.666 -2 -21.999 -2c-26 0 -46.5 9.33301 -61.5 28s-22.5 43 -22.5 73zM380.999 103.003c0 31.333 9.83203 55.8359 29.499 73.5029s45.167 26.5 76.5 26.5c38 0 69 -12 93 -36
s36 -59.667 36 -107c0 -45.333 -6.33301 -84.333 -19 -117s-28.334 -60.334 -47.001 -83.001s-38.167 -40.834 -58.5 -54.501s-38.166 -23.167 -53.499 -28.5l-51 70c31.333 16.667 55.833 37.167 73.5 61.5s26.5 56.166 26.5 95.499
c-5.33301 -1.33301 -12.666 -2 -21.999 -2c-26 0 -46.5 9.33301 -61.5 28s-22.5 43 -22.5 73z" />
    <glyph glyph-name="bullet" unicode="&#x2022;" horiz-adv-x="925" 
d="M178 637c0 42 7.5 80.501 22.5 115.501s35.167 65.167 60.5 90.5s55.333 44.833 90 58.5s72 20.5 112 20.5c39.333 0 76.5 -6.5 111.5 -19.5s65 -31.833 90 -56.5s45.167 -54.334 60.5 -89.001s23 -74.667 23 -120s-7.66699 -85.333 -23 -120
s-35.5 -64.334 -60.5 -89.001s-55 -43.5 -90 -56.5s-72.167 -19.5 -111.5 -19.5s-76.5 6.5 -111.5 19.5s-65.167 31.833 -90.5 56.5s-45.5 54.334 -60.5 89.001s-22.5 74.667 -22.5 120z" />
    <glyph glyph-name="ellipsis" unicode="&#x2026;" horiz-adv-x="1554" 
d="M145 94c0 36.667 10.667 65.667 32 87s49.666 32 84.999 32c36.667 0 66 -10.5 88 -31.5s33 -50.167 33 -87.5c0 -35.333 -11 -64 -33 -86s-51.333 -33 -88 -33c-35.333 0 -63.666 11 -84.999 33s-32 50.667 -32 86zM666 94c0 36.667 10.5 65.667 31.5 87
s49.167 32 84.5 32c36.667 0 66 -10.5 88 -31.5s33 -50.167 33 -87.5c0 -35.333 -10.833 -64 -32.5 -86s-51.167 -33 -88.5 -33c-35.333 0 -63.5 11 -84.5 33s-31.5 50.667 -31.5 86zM1186 94c0 36.667 10.499 65.667 31.499 87s49.5 32 85.5 32
c36.667 0 65.834 -10.5 87.501 -31.5s32.5 -50.167 32.5 -87.5c0 -35.333 -10.833 -64 -32.5 -86s-50.834 -33 -87.501 -33c-35.333 0 -63.666 11 -84.999 33s-32 50.667 -32 86z" />
    <glyph glyph-name="uni202F" unicode="&#x202f;" horiz-adv-x="356" 
 />
    <glyph glyph-name="guilsinglleft" unicode="&#x2039;" horiz-adv-x="608" 
d="M80 530l328 471l108 -88l-199 -297l-98 -84l98 -73l211 -291l-108 -90z" />
    <glyph glyph-name="guilsinglright" unicode="&#x203a;" horiz-adv-x="608" 
d="M80 911l108 90l340 -452l-327 -471l-109 88l199 297l98 84l-98 74z" />
    <glyph glyph-name="uni205F" unicode="&#x205f;" horiz-adv-x="445" 
 />
    <glyph glyph-name="Euro" unicode="&#x20ac;" 
d="M20 516l37 135.001h113c-1.33301 12 -2 22.5 -2 31.5v34.5v39c0 10.667 0.666992 23.667 2 39h-150l37 135h129c16.667 91.333 42.334 170.5 77.001 237.5s77 122 127 165s105.667 74.667 167 95s127 30.5 197 30.5c69.333 0 129.333 -4.33301 180 -13
s94.334 -20.667 131.001 -36l-43 -149c-31.333 15.333 -68.166 27 -110.499 35s-93.5 12 -153.5 12c-45.333 0 -89.166 -6.83301 -131.499 -20.5s-80.833 -35.834 -115.5 -66.501s-65.334 -70 -92.001 -118s-47 -105.333 -61 -172h578l-35 -135h-561
c-1.33301 -15.333 -2 -28.5 -2 -39.5v-38.5v-33.5c0 -9 0.666992 -19.833 2 -32.5h520l-35 -135h-471c24.667 -128.667 73.5 -225.667 146.5 -291s167.5 -98 283.5 -98c53.333 0 102.166 6.16699 146.499 18.5s82.166 28.166 113.499 47.499l41 -134
c-40.667 -31.333 -91.334 -53.166 -152.001 -65.499s-121.667 -18.5 -183 -18.5c-155.333 0 -282 44.5 -380 133.5s-160.667 224.833 -188 407.5h-162z" />
    <glyph glyph-name="trademark" unicode="&#x2122;" horiz-adv-x="1812" 
d="M78 1294v140h717v-140h-279v-598h-160v598h-278zM877 696v738h159l215 -344l58 -119h2l61 123l199 340h162v-738h-156v342l20 211h-8l-80 -174l-178 -287h-67l-183 285l-73 176h-9l27 -209v-344h-149z" />
    <glyph glyph-name="uni25FC" unicode="&#x25fc;" horiz-adv-x="1024" 
d="M0 0v1024h1024v-1024h-1024z" />
    <glyph glyph-name="glyph1" horiz-adv-x="0" 
 />
    </font>
</defs>
</svg>
